<svg width="28" height="34" viewBox="0 0 28 34" fill="none" xmlns="http://www.w3.org/2000/svg">
<path d="M13.3584 32.7264L13.3476 32.7111L13.3362 32.6962C11.6051 30.4308 10.1113 28.5024 8.82209 26.8382C6.1213 23.3517 4.31875 21.0248 3.11498 19.1884C2.23907 17.8521 1.72159 16.8344 1.41556 15.8719C1.11219 14.9177 1 13.9656 1 12.7376C1 6.34126 6.66271 1 14 1C21.2679 1 27 6.34448 27 12.7376C27 13.9627 26.8839 14.9133 26.5748 15.8664C26.2627 16.8289 25.7367 17.847 24.8511 19.1845C23.6765 20.9586 21.9452 23.1877 19.3922 26.475C18.0366 28.2203 16.4494 30.264 14.5908 32.6962L14.5795 32.7111L14.5687 32.7264C14.4589 32.8817 14.2432 33 13.9635 33C13.6838 33 13.4682 32.8817 13.3584 32.7264Z" fill="white" stroke="#FFB329" stroke-width="2"/>
<g clip-path="url(#clip0_979_13179)">
<path d="M8.4 8.1V9.5C8.4 9.88719 8.08719 10.2 7.7 10.2C7.31281 10.2 7 9.88719 7 9.5V8.1C7 6.94063 7.94063 6 9.1 6H18.9C20.0594 6 21 6.94063 21 8.1V9.5C21 9.88719 20.6872 10.2 20.3 10.2C19.9128 10.2 19.6 9.88719 19.6 9.5V8.1C19.6 7.71281 19.2872 7.4 18.9 7.4H9.1C8.71281 7.4 8.4 7.71281 8.4 8.1ZM9.8 8.1H18.2V15.8C18.2 16.5722 17.5722 17.2 16.8 17.2H11.2C10.4278 17.2 9.8 16.5722 9.8 15.8V8.1ZM14 13.7C15.1594 13.7 16.1 12.9169 16.1 11.95C16.1 10.9831 15.1594 10.2 14 10.2C12.8406 10.2 11.9 10.9831 11.9 11.95C11.9 12.9169 12.8406 13.7 14 13.7Z" fill="#FFB329"/>
</g>
<defs>
<clipPath id="clip0_979_13179">
<rect width="14" height="11.2" fill="white" transform="translate(7 6)"/>
</clipPath>
</defs>
</svg>
