<svg width="28" height="35" viewBox="0 0 28 35" fill="none" xmlns="http://www.w3.org/2000/svg">
<path d="M13.3584 32.8689L13.3476 32.8537L13.3362 32.8388C11.6051 30.5734 10.1113 28.645 8.82209 26.9808C6.1213 23.4943 4.31875 21.1674 3.11498 19.3309C2.23907 17.9947 1.72159 16.977 1.41556 16.0145C1.11219 15.0603 1 14.1082 1 12.8801C1 6.48384 6.66271 1.14258 14 1.14258C21.2679 1.14258 27 6.48706 27 12.8801C27 14.1052 26.8839 15.0558 26.5748 16.009C26.2627 16.9715 25.7367 17.9895 24.8511 19.3271C23.6765 21.1012 21.9452 23.3303 19.3922 26.6176C18.0366 28.3629 16.4494 30.4066 14.5908 32.8388L14.5795 32.8537L14.5687 32.8689C14.4589 33.0243 14.2432 33.1426 13.9635 33.1426C13.6838 33.1426 13.4682 33.0243 13.3584 32.8689Z" fill="white" stroke="#FFB329" stroke-width="2"/>
<path d="M12.7148 16.502L13.0977 18.8809C13.0977 18.9355 13.125 18.9902 13.125 19.0176C13.125 19.5098 12.7148 19.8926 12.25 19.8926C12.1406 19.8926 12.0039 19.8926 11.9219 19.8379C11.3203 19.6191 10.4727 19.0723 10.0078 18.6348L12.7148 16.502ZM20.918 10.8418C20.9727 10.9238 20.9727 11.0605 20.9727 11.1426C20.9727 11.6348 20.5898 12.0176 20.125 12.0176H20.0977C20.0703 12.0176 20.0156 12.0176 19.9609 12.0176L17.582 11.6348L19.7148 8.90039C20.1523 9.39258 20.6992 10.2402 20.918 10.8418ZM13.3984 6.52148L15.1484 12.209C15.1758 12.291 15.2031 12.4004 15.2031 12.4551C15.2031 12.6738 15.0938 12.9473 14.9297 13.084L14.1641 13.8496C14.0273 14.0137 13.7539 14.123 13.5352 14.123C13.4805 14.123 13.3711 14.0957 13.2891 14.0684L7.60156 12.3184C7.27344 12.2363 7 11.8535 7 11.498C7 11.4434 7 11.334 7.02734 11.2793C7.60156 8.92773 10.0078 6.52148 12.3594 5.91992C12.4141 5.91992 12.5234 5.91992 12.5781 5.91992C12.9336 5.91992 13.3164 6.19336 13.3984 6.52148ZM19.2227 7.69727C19.2227 7.72461 19.25 7.7793 19.25 7.80664C19.25 7.9707 19.1406 8.2168 19.0586 8.35352L16.4336 11.6895C16.3242 11.8262 16.1602 11.9082 15.9961 11.9629L14.2461 6.27539C14.2188 6.16602 14.1641 6.11133 14.1367 6.0293C14.4648 5.97461 14.9844 5.91992 15.3125 5.89258C16.4062 5.91992 18.0195 6.43945 18.8945 7.12305C19.0586 7.23242 19.1953 7.50586 19.2227 7.69727ZM13.043 14.916C12.9883 15.0801 12.9062 15.2441 12.7695 15.3535L9.43359 17.9785C9.29688 18.0605 9.05078 18.1426 8.88672 18.1426C8.85938 18.1426 8.80469 18.1426 8.77734 18.1426C8.58594 18.1152 8.3125 17.9785 8.20312 17.8145C7.51953 16.9395 7 15.3535 7 14.2598C7 13.9316 7.05469 13.3848 7.10938 13.0566C7.16406 13.1113 7.27344 13.1387 7.35547 13.166L13.043 14.916Z" fill="#FFB329"/>
</svg>
