<svg width="28" height="35" viewBox="0 0 28 35" fill="none" xmlns="http://www.w3.org/2000/svg">
<path d="M13.3584 33.5262L13.3476 33.5109L13.3362 33.496C11.6051 31.2306 10.1113 29.3022 8.82209 27.638C6.1213 24.1515 4.31875 21.8246 3.11498 19.9882C2.23907 18.6519 1.72159 17.6342 1.41556 16.6717C1.11219 15.7175 1 14.7654 1 13.5374C1 7.14107 6.66271 1.7998 14 1.7998C21.2679 1.7998 27 7.14429 27 13.5374C27 14.7625 26.8839 15.7131 26.5748 16.6662C26.2627 17.6287 25.7367 18.6468 24.8511 19.9843C23.6765 21.7584 21.9452 23.9875 19.3922 27.2748C18.0366 29.0201 16.4494 31.0638 14.5908 33.496L14.5795 33.5109L14.5687 33.5262C14.4589 33.6815 14.2432 33.7998 13.9635 33.7998C13.6838 33.7998 13.4682 33.6815 13.3584 33.5262Z" fill="white" stroke="#5C7FA3" stroke-width="2"/>
<path d="M20.7266 8.13574L14.875 13.9873V19.2373H16.4062C17.0078 19.2373 17.5 19.7295 17.5 20.3311C17.5 20.4678 17.3906 20.5498 17.2812 20.5498H10.7188C10.582 20.5498 10.5 20.4678 10.5 20.3311C10.5 19.7295 10.9648 19.2373 11.5938 19.2373H13.125V13.9873L7.24609 8.13574C6.67188 7.56152 7.08203 6.5498 7.90234 6.5498H20.0703C20.8906 6.5498 21.3008 7.56152 20.7266 8.13574ZM19.1133 7.8623H8.85938L10.1719 9.1748H17.8008L19.1133 7.8623Z" fill="#5C7FA3"/>
</svg>
