<svg width="28" height="35" viewBox="0 0 28 35" fill="none" xmlns="http://www.w3.org/2000/svg">
<path d="M13.3584 33.0594L13.3476 33.0441L13.3362 33.0293C11.6051 30.7638 10.1113 28.8354 8.82209 27.1712C6.1213 23.6847 4.31875 21.3578 3.11498 19.5214C2.23907 18.1851 1.72159 17.1674 1.41556 16.2049C1.11219 15.2507 1 14.2986 1 13.0706C1 6.67427 6.66271 1.33301 14 1.33301C21.2679 1.33301 27 6.67749 27 13.0706C27 14.2957 26.8839 15.2463 26.5748 16.1994C26.2627 17.162 25.7367 18.18 24.8511 19.5175C23.6765 21.2916 21.9452 23.5207 19.3922 26.808C18.0366 28.5533 16.4494 30.597 14.5908 33.0293L14.5795 33.0441L14.5687 33.0594C14.4589 33.2147 14.2432 33.333 13.9635 33.333C13.6838 33.333 13.4682 33.2147 13.3584 33.0594Z" fill="white" stroke="#5C7FA3" stroke-width="2"/>
<path d="M19.25 11.3604C21.1914 11.3604 22.7773 12.9736 22.7227 14.8877C22.6953 16.8291 21.1367 18.3604 19.1953 18.333C17.3086 18.333 15.75 16.7471 15.75 14.8604C15.7227 13.8213 16.1602 12.9189 16.8711 12.2627L16.4609 11.6064L14.1094 15.4072C14 15.5713 13.7539 15.708 13.5625 15.708H12.1133C11.7305 17.2393 10.3633 18.333 8.75 18.333C6.80859 18.333 5.22266 16.7744 5.25 14.833C5.25 12.9189 6.83594 11.333 8.75 11.333C9.16016 11.3604 9.54297 11.415 9.92578 11.5518L10.7188 10.2393H9.40625C9.02344 10.2393 8.75 9.96582 8.75 9.61035C8.72266 9.22754 9.05078 8.92676 9.40625 8.92676H11.8125C12.0312 8.92676 12.25 9.14551 12.25 9.36426V9.80176H15.3398L14.9297 9.14551H13.5625C13.3164 9.14551 13.125 8.9541 13.125 8.70801V8.27051C13.125 8.05176 13.3164 7.83301 13.5625 7.83301H15.3125C15.5039 7.83301 15.75 7.99707 15.8594 8.16113L17.9922 11.5791C18.375 11.415 18.8125 11.333 19.25 11.3604ZM10.3359 13.3564L9.70703 14.3955H10.8828C10.8008 14.0127 10.6094 13.6572 10.3359 13.3564ZM8.75 17.0205C9.625 17.0205 10.3906 16.501 10.7461 15.708H8.53125C8.01172 15.708 7.68359 15.1611 7.95703 14.7236L9.21484 12.7002C9.05078 12.6729 8.88672 12.6455 8.75 12.6455C7.51953 12.6455 6.5625 13.6299 6.5625 14.833C6.5625 16.0635 7.51953 17.0205 8.75 17.0205ZM13.1797 14.3955L15.2031 11.1143H11.7305L11.0469 12.208C11.6758 12.7822 12.1133 13.5479 12.2227 14.3955H13.1797ZM19.1133 17.0205C20.3711 17.1025 21.4375 16.0908 21.4375 14.8604C21.4375 13.6299 20.4531 12.6729 19.25 12.6729H19.2227C19.0859 12.6729 18.8398 12.7002 18.7031 12.7275L19.9062 14.6963C20.043 14.8877 19.9609 15.1611 19.7695 15.2979L19.3867 15.5166C19.1953 15.6533 18.9219 15.5713 18.7852 15.3799L17.582 13.4111C17.2266 13.8213 17.0352 14.3682 17.0625 14.9424C17.0898 16.0635 17.9922 16.9658 19.1133 17.0205Z" fill="#5C7FA3"/>
</svg>
