<svg width="28" height="34" viewBox="0 0 28 34" fill="none" xmlns="http://www.w3.org/2000/svg">
<path d="M13.3584 32.7264L13.3476 32.7111L13.3362 32.6962C11.6051 30.4308 10.1113 28.5024 8.82209 26.8382C6.1213 23.3517 4.31875 21.0248 3.11498 19.1884C2.23907 17.8521 1.72159 16.8344 1.41556 15.8719C1.11219 14.9177 1 13.9656 1 12.7376C1 6.34126 6.66271 1 14 1C21.2679 1 27 6.34448 27 12.7376C27 13.9627 26.8839 14.9133 26.5748 15.8664C26.2627 16.8289 25.7367 17.847 24.8511 19.1845C23.6765 20.9586 21.9452 23.1877 19.3922 26.475C18.0366 28.2203 16.4494 30.264 14.5908 32.6962L14.5795 32.7111L14.5687 32.7264C14.4589 32.8817 14.2432 33 13.9635 33C13.6838 33 13.4682 32.8817 13.3584 32.7264Z" fill="white" stroke="#82E1BE" stroke-width="2"/>
<path d="M20.3438 9.25C20.6992 9.25 21 9.55078 21 9.90625V12.0938C21 12.4766 20.6992 12.75 20.3438 12.75H20.125V17.3164C20.125 17.6719 19.8516 18 19.4141 18H19.25V18.875C19.25 19.3672 18.8398 19.75 18.375 19.75H17.5C17.0078 19.75 16.625 19.3672 16.625 18.875V18H11.375V18.875C11.375 19.3672 10.9648 19.75 10.5 19.75H9.625C9.13281 19.75 8.75 19.3672 8.75 18.875V18C8.25781 18 7.875 17.6172 7.875 17.125V12.75H7.65625C7.27344 12.75 7 12.4766 7 12.0938V9.90625C7 9.55078 7.27344 9.25 7.65625 9.25H7.875V7.9375C7.875 6.73438 10.582 5.75 14 5.75C17.3906 5.75 20.125 6.73438 20.125 7.9375V9.25H20.3438ZM11.375 7.71875V8.15625C11.375 8.29297 11.457 8.375 11.5938 8.375H16.4062C16.5156 8.375 16.625 8.29297 16.625 8.15625V7.71875C16.625 7.60938 16.5156 7.5 16.4062 7.5H11.5938C11.457 7.5 11.375 7.60938 11.375 7.71875ZM10.0625 16.6875C10.5273 16.6875 10.9375 16.3047 10.9375 15.8125C10.9375 15.3477 10.5273 14.9375 10.0625 14.9375C9.57031 14.9375 9.1875 15.3477 9.1875 15.8125C9.1875 16.3047 9.57031 16.6875 10.0625 16.6875ZM13.5625 13.625V9.25H10.5C10.0078 9.25 9.625 9.66016 9.625 10.125V12.75C9.625 13.2422 10.0078 13.625 10.5 13.625H13.5625ZM14.4375 13.625H17.5C17.9648 13.625 18.375 13.2422 18.375 12.75V10.125C18.375 9.66016 17.9648 9.25 17.5 9.25H14.4375V13.625ZM17.9375 16.6875C18.4023 16.6875 18.8125 16.3047 18.8125 15.8125C18.8125 15.3477 18.4023 14.9375 17.9375 14.9375C17.4453 14.9375 17.0625 15.3477 17.0625 15.8125C17.0625 16.3047 17.4453 16.6875 17.9375 16.6875Z" fill="#82E1BE"/>
</svg>
