<svg width="28" height="34" viewBox="0 0 28 34" fill="none" xmlns="http://www.w3.org/2000/svg">
<path d="M13.3584 32.7264L13.3476 32.7111L13.3362 32.6962C11.6051 30.4308 10.1113 28.5024 8.82209 26.8382C6.1213 23.3517 4.31875 21.0248 3.11498 19.1884C2.23907 17.8521 1.72159 16.8344 1.41556 15.8719C1.11219 14.9177 1 13.9656 1 12.7376C1 6.34126 6.66271 1 14 1C21.2679 1 27 6.34448 27 12.7376C27 13.9627 26.8839 14.9133 26.5748 15.8664C26.2627 16.8289 25.7367 17.847 24.8511 19.1845C23.6765 20.9586 21.9452 23.1877 19.3922 26.475C18.0366 28.2203 16.4494 30.264 14.5908 32.6962L14.5795 32.7111L14.5687 32.7264C14.4589 32.8817 14.2432 33 13.9635 33C13.6838 33 13.4682 32.8817 13.3584 32.7264Z" fill="white" stroke="#E182A5" stroke-width="2"/>
<path d="M16.1875 8.375C16.8164 8.375 17.5273 8.8125 18.2109 9.57812C19.4414 10.9727 19.5781 13.2422 18.5391 14.418C14.2461 19.3125 5.96094 16.332 9.76172 14.6914C13.7539 12.9414 14.3008 10.6172 14.4922 10.043C14.7656 9.03125 15.4492 8.375 16.1875 8.375ZM16.625 12.75C17.0898 12.75 17.5 12.3672 17.5 11.875C17.5 11.4102 17.0898 11 16.625 11C16.1328 11 15.75 11.4102 15.75 11.875C15.75 12.3672 16.1328 12.75 16.625 12.75ZM20.1797 7.85547C22.2852 10.2344 22.4219 13.9531 20.5078 16.1406C18.2383 18.7383 15.5039 19.668 13.125 19.75C9.92578 19.8867 6.07031 18.7109 6.125 15.375C6.15234 11.5742 10.6367 13.1328 11.9766 9.30469C12.6055 7.17188 14.2734 5.75 16.1875 5.75C17.5 5.75 18.8945 6.40625 20.1797 7.85547ZM19.1953 14.9922C20.5352 13.4609 20.3984 10.7266 18.8672 9.00391C18.0195 8.01953 17.0898 7.5 16.1875 7.5C15.0664 7.5 14.0547 8.40234 13.6445 9.79688C13.0156 11.9297 11.3477 13.0234 9.40625 13.8711C6.72656 15.0469 8.28516 16.6602 8.36719 16.7422C9.46094 17.8359 12.0039 18.0547 13.043 18C14.7109 17.9453 17.1172 17.3711 19.1953 14.9922Z" fill="#E182A5"/>
</svg>
