<svg width="28" height="35" viewBox="0 0 28 35" fill="none" xmlns="http://www.w3.org/2000/svg">
<path d="M13.3584 33.326L13.3476 33.3107L13.3362 33.2959C11.6051 31.0304 10.1113 29.102 8.82209 27.4378C6.1213 23.9513 4.31875 21.6244 3.11498 19.788C2.23907 18.4517 1.72159 17.434 1.41556 16.4715C1.11219 15.5173 1 14.5652 1 13.3372C1 6.94087 6.66271 1.59961 14 1.59961C21.2679 1.59961 27 6.94409 27 13.3372C27 14.5623 26.8839 15.5129 26.5748 16.466C26.2627 17.4286 25.7367 18.4466 24.8511 19.7841C23.6765 21.5582 21.9452 23.7873 19.3922 27.0746C18.0366 28.8199 16.4494 30.8636 14.5908 33.2959L14.5795 33.3107L14.5687 33.326C14.4589 33.4813 14.2432 33.5996 13.9635 33.5996C13.6838 33.5996 13.4682 33.4813 13.3584 33.326Z" fill="white" stroke="#A35CA3" stroke-width="2"/>
<path d="M10.4727 10.3691C10.3906 9.9043 10.1719 9.49414 9.84375 9.16602C9.24219 8.53711 8.85938 7.7168 8.75 6.8418C8.72266 6.5957 8.91406 6.34961 9.1875 6.34961H9.625C9.87109 6.34961 10.0352 6.51367 10.0625 6.73242C10.1445 7.2793 10.3906 7.79883 10.8008 8.20898C11.3477 8.75586 11.7031 9.4668 11.7852 10.2324C11.8398 10.5059 11.6211 10.7246 11.3477 10.7246H10.9102C10.6914 10.7246 10.5 10.5879 10.4727 10.3691ZM13.5352 10.3691C13.4531 9.9043 13.2344 9.49414 12.9062 9.16602C12.3047 8.53711 11.9219 7.7168 11.8125 6.8418C11.7578 6.5957 11.9766 6.34961 12.25 6.34961H12.6875C12.9336 6.34961 13.0977 6.51367 13.125 6.73242C13.207 7.2793 13.4531 7.79883 13.8633 8.20898C14.4102 8.75586 14.7656 9.4668 14.8477 10.2324C14.9023 10.5059 14.6836 10.7246 14.4102 10.7246H13.9727C13.7539 10.7246 13.5625 10.5879 13.5352 10.3691ZM17.9375 11.5996C19.6055 11.5996 21 12.9941 21 14.6621C21 16.3574 19.6055 17.7246 17.9375 17.7246H17.5C17.5 19.1738 16.3242 20.3496 14.875 20.3496H9.625C8.17578 20.3496 7 19.1738 7 17.7246V12.4746C7 12.0098 7.38281 11.5996 7.875 11.5996H17.9375ZM17.9375 15.9746C18.6484 15.9746 19.25 15.4004 19.25 14.6621C19.25 13.9512 18.6484 13.3496 17.9375 13.3496H17.5V15.9746H17.9375Z" fill="#A35CA3"/>
</svg>
