<svg width="28" height="35" viewBox="0 0 28 35" fill="none" xmlns="http://www.w3.org/2000/svg">
<path d="M13.3584 32.8933L13.3476 32.8781L13.3362 32.8632C11.6051 30.5978 10.1113 28.6694 8.82209 27.0052C6.1213 23.5187 4.31875 21.1918 3.11498 19.3554C2.23907 18.0191 1.72159 17.0014 1.41556 16.0389C1.11219 15.0847 1 14.1326 1 12.9046C1 6.50825 6.66271 1.16699 14 1.16699C21.2679 1.16699 27 6.51148 27 12.9046C27 14.1297 26.8839 15.0803 26.5748 16.0334C26.2627 16.9959 25.7367 18.014 24.8511 19.3515C23.6765 21.1256 21.9452 23.3547 19.3922 26.642C18.0366 28.3873 16.4494 30.431 14.5908 32.8632L14.5795 32.8781L14.5687 32.8933C14.4589 33.0487 14.2432 33.167 13.9635 33.167C13.6838 33.167 13.4682 33.0487 13.3584 32.8933Z" fill="white" stroke="#A35CA3" stroke-width="2"/>
<path d="M12.1406 12.5889L12.0039 12.917H8.17578V13.792C8.17578 14.2842 7.79297 14.667 7.30078 14.667H6.69922C6.20703 14.667 5.82422 14.2842 5.82422 13.792V12.7529C5.49609 12.5068 5.25 11.96 5.25 11.5498V10.7568C5.25 10.1826 5.66016 9.52637 6.20703 9.30762L6.34375 9.00684L6.80859 7.66699C7.19141 6.70996 8.33984 5.91699 9.35156 5.91699C9.35156 5.91699 9.35156 5.91699 9.37891 5.91699H12.4688C12.4961 5.91699 12.4961 5.91699 12.4961 5.91699C13.5078 5.91699 14.6562 6.70996 15.0391 7.66699L15.5312 9.00684L15.6406 9.30762C16.0234 9.47168 16.4336 9.90918 16.543 10.292H15.5039C15.4766 10.292 15.4766 10.292 15.4766 10.292C14.1367 10.292 12.6328 11.3311 12.1406 12.5889ZM8.28516 8.43262L7.95703 9.41699H13.918L13.5625 8.43262C13.3984 7.99512 12.9609 7.66699 12.4688 7.66699H9.37891C8.88672 7.66699 8.44922 7.99512 8.28516 8.43262ZM7.32812 11.8232C7.71094 11.8232 8.3125 11.9053 8.3125 11.4951C8.3125 11.1123 7.71094 10.5107 7.32812 10.5107C6.91797 10.5107 6.67188 10.7842 6.67188 11.167C6.67188 11.5771 6.91797 11.8232 7.32812 11.8232ZM21.7656 14.5576C22.3125 14.7764 22.7227 15.4326 22.75 16.0068V16.7998C22.7227 17.21 22.4766 17.7568 22.1484 18.0029V19.042C22.1484 19.5342 21.7656 19.917 21.2734 19.917H20.6719C20.1797 19.917 19.7969 19.5342 19.7969 19.042V18.167H14.3008V19.042C14.3008 19.5342 13.918 19.917 13.4258 19.917H12.8242C12.332 19.917 11.9492 19.5342 11.9492 19.042V18.0029C11.6211 17.7568 11.375 17.21 11.375 16.7998V16.0068C11.375 15.4326 11.7852 14.7764 12.332 14.5576L12.4688 14.2568L12.9336 12.917C13.3164 11.96 14.4648 11.167 15.4766 11.167C15.4766 11.167 15.4766 11.167 15.5039 11.167H18.5938H18.6211C19.6328 11.167 20.7812 11.96 21.1641 12.917L21.6562 14.2568L21.7656 14.5576ZM14.4102 13.6826L14.082 14.667H20.043L19.6875 13.6826C19.5234 13.2451 19.0859 12.917 18.5938 12.917H15.5039C15.0117 12.917 14.5742 13.2451 14.4102 13.6826ZM13.4531 17.0732C13.8359 17.0732 14.4375 17.1553 14.4375 16.7451C14.4375 16.3623 13.8359 15.7607 13.4531 15.7607C13.043 15.7607 12.7969 16.0342 12.7969 16.417C12.7969 16.8271 13.043 17.0732 13.4531 17.0732ZM20.6719 17.0732C21.0547 17.0732 21.3281 16.8271 21.3281 16.417C21.3281 16.0342 21.0547 15.7607 20.6719 15.7607C20.2617 15.7607 19.6875 16.3623 19.6875 16.7451C19.6875 17.1553 20.2617 17.0732 20.6719 17.0732Z" fill="#A35CA3"/>
</svg>
