<svg width="28" height="34" viewBox="0 0 28 34" fill="none" xmlns="http://www.w3.org/2000/svg">
<path d="M13.3584 32.7264L13.3476 32.7111L13.3362 32.6962C11.6051 30.4308 10.1113 28.5024 8.82209 26.8382C6.1213 23.3517 4.31875 21.0248 3.11498 19.1884C2.23907 17.8521 1.72159 16.8344 1.41556 15.8719C1.11219 14.9177 1 13.9656 1 12.7376C1 6.34126 6.66271 1 14 1C21.2679 1 27 6.34448 27 12.7376C27 13.9627 26.8839 14.9133 26.5748 15.8664C26.2627 16.8289 25.7367 17.847 24.8511 19.1845C23.6765 20.9586 21.9452 23.1877 19.3922 26.475C18.0366 28.2203 16.4494 30.264 14.5908 32.6962L14.5795 32.7111L14.5687 32.7264C14.4589 32.8817 14.2432 33 13.9635 33C13.6838 33 13.4682 32.8817 13.3584 32.7264Z" fill="white" stroke="#5CA35C" stroke-width="2"/>
<path d="M15.3125 18C15.5312 18 15.75 18.2188 15.75 18.4375V19.3125C15.75 19.5586 15.5312 19.75 15.3125 19.75H6.5625C6.31641 19.75 6.125 19.5586 6.125 19.3125V18.4375C6.125 18.2188 6.31641 18 6.5625 18H15.3125ZM21 9.25H21.4375C21.6562 9.25 21.875 9.46875 21.875 9.6875V10.5625C21.875 11.5469 21.2188 12.3672 20.3438 12.6406V15.9219C20.3438 17.1523 19.2773 18.1367 18.0469 18C16.9531 17.8906 16.1875 16.9336 16.1875 15.8398V15.1562C16.1875 14.5547 15.6953 14.0625 15.0938 14.0625H14.875V17.125H7V7.5C7 6.54297 7.76562 5.75 8.75 5.75H13.125C14.082 5.75 14.875 6.54297 14.875 7.5V12.75H15.0938C16.4062 12.75 17.5 13.8438 17.5 15.1562V15.9219C17.5 16.3867 17.9102 16.7695 18.375 16.6875C18.7578 16.6328 19.0312 16.2773 19.0312 15.8945V12.6406C18.1289 12.3672 17.5 11.5469 17.5 10.5625V9.6875C17.5 9.46875 17.6914 9.25 17.9375 9.25H18.375V7.9375C18.375 7.71875 18.5664 7.5 18.8125 7.5C19.0312 7.5 19.25 7.71875 19.25 7.9375V9.25H20.125V7.9375C20.125 7.71875 20.3164 7.5 20.5625 7.5C20.7812 7.5 21 7.71875 21 7.9375V9.25ZM13.2344 10.5625C13.3438 10.3711 13.1797 10.125 12.9336 10.125H11.375L11.6758 8.75781C11.7305 8.56641 11.5664 8.375 11.375 8.375H9.51562C9.32422 8.375 9.1875 8.48438 9.1875 8.64844L8.75 11.5742C8.72266 11.7383 8.85938 11.875 9.07812 11.875H10.6914L10.0625 14.1719C10.0078 14.3359 10.1719 14.5 10.3906 14.5C10.5 14.5 10.6094 14.4727 10.6641 14.3633L13.2344 10.5625Z" fill="#5CA35C"/>
</svg>
