<svg width="28" height="34" viewBox="0 0 28 34" fill="none" xmlns="http://www.w3.org/2000/svg">
<path d="M13.3584 32.7264L13.3476 32.7111L13.3362 32.6962C11.6051 30.4308 10.1113 28.5024 8.82209 26.8382C6.1213 23.3517 4.31875 21.0248 3.11498 19.1884C2.23907 17.8521 1.72159 16.8344 1.41556 15.8719C1.11219 14.9177 1 13.9656 1 12.7376C1 6.34126 6.66271 1 14 1C21.2679 1 27 6.34448 27 12.7376C27 13.9627 26.8839 14.9133 26.5748 15.8664C26.2627 16.8289 25.7367 17.847 24.8511 19.1845C23.6765 20.9586 21.9452 23.1877 19.3922 26.475C18.0366 28.2203 16.4494 30.264 14.5908 32.6962L14.5795 32.7111L14.5687 32.7264C14.4589 32.8817 14.2432 33 13.9635 33C13.6838 33 13.4682 32.8817 13.3584 32.7264Z" fill="white" stroke="#5C7FA3" stroke-width="2"/>
<g clip-path="url(#clip0_994_13220)">
<path d="M19.4086 6.8832L15.9414 10.3477L15.9141 10.375H13.3957L16.8711 6.90234L16.8984 6.875H19.25C19.3047 6.875 19.3566 6.87773 19.4086 6.8832ZM17.7707 10.375L20.6172 7.53125C20.8578 7.83203 21 8.21211 21 8.625V10.375H17.7707ZM12.5207 6.875H15.0391L11.5664 10.3477L11.5391 10.375H9.0207L12.4961 6.90234L12.5234 6.875H12.5207ZM10.6641 6.875L7.19141 10.3477L7.16406 10.375H7V8.625C7 7.65977 7.78477 6.875 8.75 6.875H10.6668H10.6641ZM7 11.25H21V17.375C21 18.3402 20.2152 19.125 19.25 19.125H8.75C7.78477 19.125 7 18.3402 7 17.375V11.25ZM12.9199 13.052C12.7777 13.1285 12.6875 13.2762 12.6875 13.4375V16.9375C12.6875 17.0988 12.775 17.2465 12.9199 17.323C13.0648 17.3996 13.2344 17.3914 13.3684 17.3012L15.9934 15.5512C16.1137 15.4691 16.1875 15.3324 16.1875 15.1875C16.1875 15.0426 16.1137 14.9059 15.9934 14.8238L13.3684 13.0738C13.2344 12.9836 13.0621 12.9754 12.9199 13.052Z" fill="#5C7FA3"/>
</g>
<defs>
<clipPath id="clip0_994_13220">
<rect width="14" height="14" fill="white" transform="translate(7 6)"/>
</clipPath>
</defs>
</svg>
