<svg width="28" height="35" viewBox="0 0 28 35" fill="none" xmlns="http://www.w3.org/2000/svg">
<path d="M13.3584 33.1551L13.3476 33.1398L13.3362 33.125C11.6051 30.8595 10.1113 28.9311 8.82209 27.2669C6.1213 23.7804 4.31875 21.4535 3.11498 19.6171C2.23907 18.2808 1.72159 17.2631 1.41556 16.3006C1.11219 15.3464 1 14.3943 1 13.1663C1 6.76997 6.66271 1.42871 14 1.42871C21.2679 1.42871 27 6.7732 27 13.1663C27 14.3914 26.8839 15.342 26.5748 16.2951C26.2627 17.2577 25.7367 18.2757 24.8511 19.6132C23.6765 21.3873 21.9452 23.6164 19.3922 26.9037C18.0366 28.649 16.4494 30.6927 14.5908 33.125L14.5795 33.1398L14.5687 33.1551C14.4589 33.3104 14.2432 33.4287 13.9635 33.4287C13.6838 33.4287 13.4682 33.3104 13.3584 33.1551Z" fill="white" stroke="#5C7FA3" stroke-width="2"/>
<path d="M22.5391 9.43262C23.4414 10.9092 22.6211 12.9326 20.9258 13.1514C20.7891 13.1787 20.6797 13.1787 20.543 13.1787C19.7227 13.1787 19.0117 12.8232 18.5195 12.2764C18.0273 12.8232 17.3164 13.1787 16.4961 13.1787C15.7031 13.1787 14.9648 12.8232 14.4727 12.2764C13.9805 12.8232 13.2695 13.1787 12.4766 13.1787C11.6562 13.1787 10.9453 12.8232 10.4531 12.2764C9.96094 12.8232 9.25 13.1787 8.42969 13.1787C8.29297 13.1787 8.18359 13.1787 8.04688 13.1514C6.35156 12.9326 5.53125 10.9092 6.46094 9.43262L8.21094 6.58887C8.375 6.34277 8.67578 6.17871 8.97656 6.17871H20.0234C20.3242 6.17871 20.5977 6.34277 20.7617 6.58887L22.5391 9.43262ZM20.543 14.0537C20.707 14.0537 20.8711 14.0537 21.0352 14.0264C21.1992 14.0264 21.3359 13.9717 21.5 13.9443V19.3037C21.5 19.7959 21.0898 20.1787 20.625 20.1787H8.375C7.88281 20.1787 7.5 19.7959 7.5 19.3037V13.9443C7.63672 13.9717 7.77344 13.999 7.9375 14.0264C8.10156 14.0537 8.26562 14.0537 8.42969 14.0537C8.70312 14.0537 8.97656 14.0264 9.25 13.9717V16.6787H19.75V13.9717C19.9961 14.0264 20.2695 14.0537 20.543 14.0537Z" fill="#5C7FA3"/>
</svg>
