<svg width="28" height="34" viewBox="0 0 28 34" fill="none" xmlns="http://www.w3.org/2000/svg">
<path d="M13.3584 32.7264L13.3476 32.7111L13.3362 32.6962C11.6051 30.4308 10.1113 28.5024 8.82209 26.8382C6.1213 23.3517 4.31875 21.0248 3.11498 19.1884C2.23907 17.8521 1.72159 16.8344 1.41556 15.8719C1.11219 14.9177 1 13.9656 1 12.7376C1 6.34126 6.66271 1 14 1C21.2679 1 27 6.34448 27 12.7376C27 13.9627 26.8839 14.9133 26.5748 15.8664C26.2627 16.8289 25.7367 17.847 24.8511 19.1845C23.6765 20.9586 21.9452 23.1877 19.3922 26.475C18.0366 28.2203 16.4494 30.264 14.5908 32.6962L14.5795 32.7111L14.5687 32.7264C14.4589 32.8817 14.2432 33 13.9635 33C13.6838 33 13.4682 32.8817 13.3584 32.7264Z" fill="white" stroke="#5C7FA3" stroke-width="2"/>
<path d="M20.4883 8.40234C20.7891 9.52344 20.5156 10.6172 19.9141 11.4102C19.2852 12.2852 19.0117 13.2969 18.9297 14.3633C18.793 15.6484 18.6289 16.9336 18.3555 18.1914L18.1367 19.1211C18.0547 19.5039 17.6992 19.75 17.3164 19.75C16.9336 19.75 16.6055 19.5039 16.5234 19.1211L15.5664 15.3477C15.457 14.8555 14.9922 14.5 14.4727 14.5C13.9805 14.5 13.5156 14.8555 13.4062 15.3477L12.4492 19.1211C12.3672 19.5039 12.0391 19.75 11.6562 19.75C11.2734 19.75 10.918 19.5039 10.8359 19.1211L10.6172 18.1914C10.3438 16.9336 10.1797 15.6484 10.043 14.3633C9.96094 13.2969 9.6875 12.2852 9.05859 11.4102C8.45703 10.6172 8.18359 9.52344 8.48438 8.40234C8.78516 7.17188 9.76953 6.16016 11 5.83203C11.6289 5.66797 12.2578 5.80469 12.8047 6.10547L15.5664 7.88281C15.7852 8.01953 16.0312 7.9375 16.168 7.74609C16.3047 7.55469 16.25 7.28125 16.0312 7.14453L15.2656 6.65234C15.3477 6.59766 15.457 6.57031 15.5391 6.48828C16.25 5.96875 17.0977 5.61328 17.9727 5.83203C19.2031 6.16016 20.1875 7.17188 20.4883 8.40234Z" fill="#5C7FA3"/>
</svg>
