<svg width="28" height="35" viewBox="0 0 28 35" fill="none" xmlns="http://www.w3.org/2000/svg">
<path d="M13.3584 33.5838L13.3476 33.5685L13.3362 33.5537C11.6051 31.2883 10.1113 29.3598 8.82209 27.6956C6.1213 24.2091 4.31875 21.8822 3.11498 20.0458C2.23907 18.7095 1.72159 17.6918 1.41556 16.7293C1.11219 15.7752 1 14.823 1 13.595C1 7.19868 6.66271 1.85742 14 1.85742C21.2679 1.85742 27 7.20191 27 13.595C27 14.8201 26.8839 15.7707 26.5748 16.7239C26.2627 17.6864 25.7367 18.7044 24.8511 20.0419C23.6765 21.816 21.9452 24.0451 19.3922 27.3324C18.0366 29.0778 16.4494 31.1214 14.5908 33.5537L14.5795 33.5685L14.5687 33.5838C14.4589 33.7392 14.2432 33.8574 13.9635 33.8574C13.6838 33.8574 13.4682 33.7392 13.3584 33.5838Z" fill="white" stroke="#82E1BE" stroke-width="2"/>
<path d="M21.875 12.5137V12.9512C21.875 13.334 21.5742 13.6074 21.2188 13.6074H21L20.2617 18.6113C20.1797 19.2676 19.6328 19.7324 18.9766 19.7324H8.99609C8.33984 19.7324 7.79297 19.2676 7.71094 18.6113L7 13.6074H6.78125C6.39844 13.6074 6.125 13.334 6.125 12.9512V12.5137C6.125 12.1582 6.39844 11.8574 6.78125 11.8574H8.61328L11.5391 7.86523C11.8125 7.45508 12.3594 7.37305 12.7422 7.67383C13.1523 7.94727 13.2344 8.49414 12.9336 8.87695L10.7734 11.8574H17.1992L15.0391 8.87695C14.7383 8.49414 14.8203 7.94727 15.2305 7.67383C15.6133 7.37305 16.1602 7.45508 16.4336 7.86523L19.3594 11.8574H21.2188C21.5742 11.8574 21.875 12.1582 21.875 12.5137ZM14.6562 17.3262V14.2637C14.6562 13.9082 14.3555 13.6074 14 13.6074C13.6172 13.6074 13.3438 13.9082 13.3438 14.2637V17.3262C13.3438 17.709 13.6172 17.9824 14 17.9824C14.3555 17.9824 14.6562 17.709 14.6562 17.3262ZM17.7188 17.3262V14.2637C17.7188 13.9082 17.418 13.6074 17.0625 13.6074C16.6797 13.6074 16.4062 13.9082 16.4062 14.2637V17.3262C16.4062 17.709 16.6797 17.9824 17.0625 17.9824C17.418 17.9824 17.7188 17.709 17.7188 17.3262ZM11.5938 17.3262V14.2637C11.5938 13.9082 11.293 13.6074 10.9375 13.6074C10.5547 13.6074 10.2812 13.9082 10.2812 14.2637V17.3262C10.2812 17.709 10.5547 17.9824 10.9375 17.9824C11.293 17.9824 11.5938 17.709 11.5938 17.3262Z" fill="#82E1BE"/>
</svg>
