<svg width="28" height="35" viewBox="0 0 28 35" fill="none" xmlns="http://www.w3.org/2000/svg">
<path d="M13.3584 33.1267L13.3476 33.1115L13.3362 33.0966C11.6051 30.8312 10.1113 28.9028 8.82209 27.2386C6.1213 23.7521 4.31875 21.4252 3.11498 19.5888C2.23907 18.2525 1.72159 17.2348 1.41556 16.2723C1.11219 15.3181 1 14.366 1 13.138C1 6.74165 6.66271 1.40039 14 1.40039C21.2679 1.40039 27 6.74488 27 13.138C27 14.363 26.8839 15.3136 26.5748 16.2668C26.2627 17.2293 25.7367 18.2474 24.8511 19.5849C23.6765 21.359 21.9452 23.5881 19.3922 26.8754C18.0366 28.6207 16.4494 30.6644 14.5908 33.0966L14.5795 33.1115L14.5687 33.1267C14.4589 33.2821 14.2432 33.4004 13.9635 33.4004C13.6838 33.4004 13.4682 33.2821 13.3584 33.1267Z" fill="white" stroke="#E182A5" stroke-width="2"/>
<path d="M19.6875 13.1504C20.3984 13.1504 21 13.752 21 14.4629C21 15.2012 20.3984 15.7754 19.6875 15.7754H8.3125C7.57422 15.7754 7 15.2012 7 14.4629C7 13.752 7.57422 13.1504 8.3125 13.1504H19.6875ZM20.125 16.6504C20.3438 16.6504 20.5625 16.8691 20.5625 17.0879V17.5254C20.5625 18.5098 19.7695 19.2754 18.8125 19.2754H9.1875C8.20312 19.2754 7.4375 18.5098 7.4375 17.5254V17.0879C7.4375 16.8691 7.62891 16.6504 7.875 16.6504H20.125ZM8.58594 12.2754C7.65625 12.2754 7.10938 11.0996 7.62891 10.2246C8.75 8.44727 11.1562 7.05273 14 7.02539C16.8164 7.05273 19.25 8.44727 20.3438 10.2246C20.8633 11.0996 20.3164 12.2754 19.3867 12.2754H8.58594ZM17.5 9.21289C17.2539 9.21289 17.0625 9.43164 17.0625 9.65039C17.0625 9.89648 17.2539 10.0879 17.5 10.0879C17.7188 10.0879 17.9375 9.89648 17.9375 9.65039C17.9375 9.43164 17.7188 9.21289 17.5 9.21289ZM14 8.33789C13.7539 8.33789 13.5625 8.55664 13.5625 8.77539C13.5625 9.02148 13.7539 9.21289 14 9.21289C14.2188 9.21289 14.4375 9.02148 14.4375 8.77539C14.4375 8.55664 14.2188 8.33789 14 8.33789ZM10.5 9.21289C10.2539 9.21289 10.0625 9.43164 10.0625 9.65039C10.0625 9.89648 10.2539 10.0879 10.5 10.0879C10.7188 10.0879 10.9375 9.89648 10.9375 9.65039C10.9375 9.43164 10.7188 9.21289 10.5 9.21289Z" fill="#E182A5"/>
</svg>
