<svg width="28" height="35" viewBox="0 0 28 35" fill="none" xmlns="http://www.w3.org/2000/svg">
<path d="M13.3584 33.5262L13.3476 33.5109L13.3362 33.496C11.6051 31.2306 10.1113 29.3022 8.82209 27.638C6.1213 24.1515 4.31875 21.8246 3.11498 19.9882C2.23907 18.6519 1.72159 17.6342 1.41556 16.6717C1.11219 15.7175 1 14.7654 1 13.5374C1 7.14107 6.66271 1.7998 14 1.7998C21.2679 1.7998 27 7.14429 27 13.5374C27 14.7625 26.8839 15.7131 26.5748 16.6662C26.2627 17.6287 25.7367 18.6468 24.8511 19.9843C23.6765 21.7584 21.9452 23.9875 19.3922 27.2748C18.0366 29.0201 16.4494 31.0638 14.5908 33.496L14.5795 33.5109L14.5687 33.5262C14.4589 33.6815 14.2432 33.7998 13.9635 33.7998C13.6838 33.7998 13.4682 33.6815 13.3584 33.5262Z" fill="white" stroke="#5C7FA3" stroke-width="2"/>
<path d="M16.1875 18.7998C16.4062 18.7998 16.625 19.0186 16.625 19.2373V20.1123C16.625 20.3584 16.4062 20.5498 16.1875 20.5498H7.4375C7.19141 20.5498 7 20.3584 7 20.1123V19.2373C7 19.0186 7.19141 18.7998 7.4375 18.7998H16.1875ZM20.4805 9.50293C20.8086 9.83105 21 10.2686 21 10.7334V16.8311C21 18.0068 19.9883 18.9092 18.8125 18.7998C17.8008 18.6904 17.0625 17.7607 17.0625 16.7217V15.9561C17.0625 15.3545 16.5703 14.8623 15.9688 14.8623H15.75V17.9248H7.875V8.2998C7.875 7.34277 8.64062 6.5498 9.625 6.5498H14C14.957 6.5498 15.75 7.34277 15.75 8.2998V13.5498H15.9688C17.2812 13.5498 18.375 14.6436 18.375 15.9561V16.8311C18.375 17.2139 18.6484 17.4873 19.0312 17.4873C19.3867 17.4873 19.6875 17.2139 19.6875 16.8311V12.4561C18.9219 12.3467 18.375 11.7178 18.375 10.9248V9.22949L17.3359 8.21777C17.1719 8.02637 17.1719 7.75293 17.3359 7.58887L17.6367 7.28809C17.8008 7.12402 18.1016 7.12402 18.2656 7.28809L20.4805 9.50293ZM14 11.7998V8.2998H9.625V11.7998H14Z" fill="#5C7FA3"/>
</svg>
