<svg width="28" height="34" viewBox="0 0 28 34" fill="none" xmlns="http://www.w3.org/2000/svg">
<path d="M13.3584 32.7264L13.3476 32.7111L13.3362 32.6962C11.6051 30.4308 10.1113 28.5024 8.82209 26.8382C6.1213 23.3517 4.31875 21.0248 3.11498 19.1884C2.23907 17.8521 1.72159 16.8344 1.41556 15.8719C1.11219 14.9177 1 13.9656 1 12.7376C1 6.34126 6.66271 1 14 1C21.2679 1 27 6.34448 27 12.7376C27 13.9627 26.8839 14.9133 26.5748 15.8664C26.2627 16.8289 25.7367 17.847 24.8511 19.1845C23.6765 20.9586 21.9452 23.1877 19.3922 26.475C18.0366 28.2203 16.4494 30.264 14.5908 32.6962L14.5795 32.7111L14.5687 32.7264C14.4589 32.8817 14.2432 33 13.9635 33C13.6838 33 13.4682 32.8817 13.3584 32.7264Z" fill="white" stroke="#A3805C" stroke-width="2"/>
<path d="M20.5898 9.66016L19.332 10.918C19.2227 11.0273 19.0039 11.0273 18.8672 10.918L15.832 7.88281C15.7227 7.74609 15.7227 7.52734 15.832 7.41797L17.0898 6.16016C17.6094 5.64062 18.457 5.64062 18.9492 6.16016L20.5898 7.80078C21.1094 8.29297 21.1094 9.14062 20.5898 9.66016ZM14.7656 8.48438C14.875 8.375 15.0938 8.375 15.2305 8.48438L18.2656 11.5195C18.4023 11.6562 18.4023 11.875 18.2656 11.9844L11.0742 19.1758L7.76562 19.75C7.30078 19.832 6.91797 19.4492 7 18.9844L7.57422 15.6758L14.7656 8.48438ZM9.40625 17.3438V16.0312H8.39453L8.09375 17.8086L8.94141 18.6562L10.7188 18.3555V17.3438H9.40625Z" fill="#A3805C"/>
</svg>
