<svg width="28" height="34" viewBox="0 0 28 34" fill="none" xmlns="http://www.w3.org/2000/svg">
<path d="M13.3584 32.7264L13.3476 32.7111L13.3362 32.6962C11.6051 30.4308 10.1113 28.5024 8.82209 26.8382C6.1213 23.3517 4.31875 21.0248 3.11498 19.1884C2.23907 17.8521 1.72159 16.8344 1.41556 15.8719C1.11219 14.9177 1 13.9656 1 12.7376C1 6.34126 6.66271 1 14 1C21.2679 1 27 6.34448 27 12.7376C27 13.9627 26.8839 14.9133 26.5748 15.8664C26.2627 16.8289 25.7367 17.847 24.8511 19.1845C23.6765 20.9586 21.9452 23.1877 19.3922 26.475C18.0366 28.2203 16.4494 30.264 14.5908 32.6962L14.5795 32.7111L14.5687 32.7264C14.4589 32.8817 14.2432 33 13.9635 33C13.6838 33 13.4682 32.8817 13.3584 32.7264Z" fill="white" stroke="#8E82E1" stroke-width="2"/>
<path d="M8.09375 8.375C8.44922 8.375 8.75 8.67578 8.75 9.03125V16.4688C8.75 16.8516 8.44922 17.125 8.09375 17.125H6.78125C6.39844 17.125 6.125 16.8516 6.125 16.4688V13.625H5.46875C5.33203 13.625 5.25 13.543 5.25 13.4062V12.0938C5.25 11.9844 5.33203 11.875 5.46875 11.875H6.125V9.03125C6.125 8.67578 6.39844 8.375 6.78125 8.375H8.09375ZM22.5312 11.875C22.6406 11.875 22.75 11.9844 22.75 12.0938V13.4062C22.75 13.543 22.6406 13.625 22.5312 13.625H21.875V16.4688C21.875 16.8516 21.5742 17.125 21.2188 17.125H19.9062C19.5234 17.125 19.25 16.8516 19.25 16.4688V9.03125C19.25 8.67578 19.5234 8.375 19.9062 8.375H21.2188C21.5742 8.375 21.875 8.67578 21.875 9.03125V11.875H22.5312ZM17.7188 6.625C18.0742 6.625 18.375 6.92578 18.375 7.28125V18.2188C18.375 18.6016 18.0742 18.875 17.7188 18.875H16.4062C16.0234 18.875 15.75 18.6016 15.75 18.2188V13.625H12.25V18.2188C12.25 18.6016 11.9492 18.875 11.5938 18.875H10.2812C9.89844 18.875 9.625 18.6016 9.625 18.2188V7.28125C9.625 6.92578 9.89844 6.625 10.2812 6.625H11.5938C11.9492 6.625 12.25 6.92578 12.25 7.28125V11.875H15.75V7.28125C15.75 6.92578 16.0234 6.625 16.4062 6.625H17.7188Z" fill="#8E82E1"/>
</svg>
