<svg width="28" height="34" viewBox="0 0 28 34" fill="none" xmlns="http://www.w3.org/2000/svg">
<path d="M13.3584 32.7264L13.3476 32.7111L13.3362 32.6962C11.6051 30.4308 10.1113 28.5024 8.82209 26.8382C6.1213 23.3517 4.31875 21.0248 3.11498 19.1884C2.23907 17.8521 1.72159 16.8344 1.41556 15.8719C1.11219 14.9177 1 13.9656 1 12.7376C1 6.34126 6.66271 1 14 1C21.2679 1 27 6.34448 27 12.7376C27 13.9627 26.8839 14.9133 26.5748 15.8664C26.2627 16.8289 25.7367 17.847 24.8511 19.1845C23.6765 20.9586 21.9452 23.1877 19.3922 26.475C18.0366 28.2203 16.4494 30.264 14.5908 32.6962L14.5795 32.7111L14.5687 32.7264C14.4589 32.8817 14.2432 33 13.9635 33C13.6838 33 13.4682 32.8817 13.3584 32.7264Z" fill="white" stroke="#5C7FA3" stroke-width="2"/>
<path d="M7 11.75C7 11.3516 7.32812 11 7.75 11H9.25V18.5H7.375C7.16406 18.5 7 18.3359 7 18.125V11.75ZM15.4375 10.625C15.5312 10.625 15.625 10.7188 15.625 10.8125V11.1875C15.625 11.3047 15.5312 11.375 15.4375 11.375H14.3125C14.1953 11.375 14.125 11.3047 14.125 11.1875V9.6875C14.125 9.59375 14.1953 9.5 14.3125 9.5H14.6875C14.7812 9.5 14.875 9.59375 14.875 9.6875V10.625H15.4375ZM18.6484 9.14844C18.8594 9.26562 19 9.5 19 9.75781V18.5H16V15.125C16 14.9375 15.8125 14.75 15.625 14.75H13.375C13.1641 14.75 13 14.9375 13 15.125V18.5H10V9.75781C10 9.54688 10.1406 9.26562 10.3281 9.14844L14.0781 6.64062C14.1719 6.57031 14.3594 6.5 14.5 6.5C14.6172 6.5 14.8047 6.57031 14.8984 6.64062L18.6484 9.14844ZM14.5 12.5C15.5312 12.5 16.375 11.6797 16.375 10.625C16.375 9.59375 15.5312 8.75 14.5 8.75C13.4453 8.75 12.625 9.59375 12.625 10.625C12.625 11.6797 13.4453 12.5 14.5 12.5ZM21.25 11C21.6484 11 22 11.3516 22 11.75V18.125C22 18.3359 21.8125 18.5 21.625 18.5H19.75V11H21.25Z" fill="#5C7FA3"/>
</svg>
