<svg width="28" height="35" viewBox="0 0 28 35" fill="none" xmlns="http://www.w3.org/2000/svg">
<path d="M13.3584 33.0594L13.3476 33.0441L13.3362 33.0293C11.6051 30.7638 10.1113 28.8354 8.82209 27.1712C6.1213 23.6847 4.31875 21.3578 3.11498 19.5214C2.23907 18.1851 1.72159 17.1674 1.41556 16.2049C1.11219 15.2507 1 14.2986 1 13.0706C1 6.67427 6.66271 1.33301 14 1.33301C21.2679 1.33301 27 6.67749 27 13.0706C27 14.2957 26.8839 15.2463 26.5748 16.1994C26.2627 17.162 25.7367 18.18 24.8511 19.5175C23.6765 21.2916 21.9452 23.5207 19.3922 26.808C18.0366 28.5533 16.4494 30.597 14.5908 33.0293L14.5795 33.0441L14.5687 33.0594C14.4589 33.2147 14.2432 33.333 13.9635 33.333C13.6838 33.333 13.4682 33.2147 13.3584 33.0594Z" fill="white" stroke="#A3805C" stroke-width="2"/>
<path d="M10.0625 13.083C8.83203 13.083 7.875 12.126 7.875 10.8955C7.875 9.69238 8.83203 8.70801 10.0625 8.70801C11.2656 8.70801 12.25 9.69238 12.25 10.8955C12.25 12.126 11.2656 13.083 10.0625 13.083ZM19.6875 9.58301C21.3555 9.58301 22.75 10.9775 22.75 12.6455V17.8955C22.75 18.1416 22.5312 18.333 22.3125 18.333H21.4375C21.1914 18.333 21 18.1416 21 17.8955V16.583H7V17.8955C7 18.1416 6.78125 18.333 6.5625 18.333H5.6875C5.44141 18.333 5.25 18.1416 5.25 17.8955V8.27051C5.25 8.05176 5.44141 7.83301 5.6875 7.83301H6.5625C6.78125 7.83301 7 8.05176 7 8.27051V13.958H13.125V10.0205C13.125 9.80176 13.3164 9.58301 13.5625 9.58301H19.6875Z" fill="#A3805C"/>
</svg>
