<svg width="28" height="35" viewBox="0 0 28 35" fill="none" xmlns="http://www.w3.org/2000/svg">
<path d="M13.3584 33.4402L13.3476 33.425L13.3362 33.4101C11.6051 31.1447 10.1113 29.2163 8.82209 27.552C6.1213 24.0656 4.31875 21.7387 3.11498 19.9022C2.23907 18.566 1.72159 17.5483 1.41556 16.5857C1.11219 15.6316 1 14.6795 1 13.4514C1 7.05513 6.66271 1.71387 14 1.71387C21.2679 1.71387 27 7.05835 27 13.4514C27 14.6765 26.8839 15.6271 26.5748 16.5803C26.2627 17.5428 25.7367 18.5608 24.8511 19.8984C23.6765 21.6725 21.9452 23.9015 19.3922 27.1888C18.0366 28.9342 16.4494 30.9779 14.5908 33.4101L14.5795 33.425L14.5687 33.4402C14.4589 33.5956 14.2432 33.7139 13.9635 33.7139C13.6838 33.7139 13.4682 33.5956 13.3584 33.4402Z" fill="white" stroke="#8E82E1" stroke-width="2"/>
<path d="M15.75 16.335C15.9141 16.6357 16.4609 17.1553 17.2539 16.9365L21 15.8428V18.085C21 18.4951 20.7266 18.8506 20.3164 18.9326L14.4102 20.4365C14.1367 20.4912 13.8359 20.4912 13.5625 20.4365L7.65625 18.9326C7.27344 18.8506 7 18.4951 7 18.085V15.8428L10.7461 16.9365C11.5117 17.1553 12.0586 16.6357 12.2227 16.335L14 13.4092L15.75 16.335ZM10.5547 10.4014L8.75 10.1826C8.75 10.1006 8.75 10.0459 8.75 9.96387C8.75 8.0498 10.3086 6.46387 12.25 6.46387C14.1367 6.46387 15.6953 7.99512 15.7227 9.88184L16.8711 6.76465C16.9531 6.5459 17.1992 6.40918 17.418 6.49121L18.9492 7.06543C19.168 7.14746 19.3047 7.39355 19.2227 7.6123L18.2383 10.292L14 10.8389L13.7539 10.8115C13.8906 10.5654 14 10.292 14 9.96387C14 9.00684 13.207 8.21387 12.25 8.21387C11.2656 8.21387 10.5 9.00684 10.5 9.96387C10.5 10.1279 10.5 10.2646 10.5547 10.4014ZM6.69922 11.085C6.78125 10.9209 6.94531 10.8389 7.13672 10.8662L14 11.7139L11.4844 15.8701C11.375 16.0615 11.1562 16.1436 10.9648 16.0889L5.55078 14.5303C5.30469 14.4482 5.16797 14.1475 5.27734 13.9014L6.69922 11.085ZM22.6953 13.9014C22.8047 14.1475 22.6953 14.4482 22.4219 14.5303L17.0078 16.0889C16.8164 16.1436 16.5977 16.0615 16.4883 15.8975L14 11.7139L20.8359 10.8662C21.0273 10.8389 21.1914 10.9209 21.2734 11.085L22.6953 13.9014Z" fill="#8E82E1"/>
</svg>
