<svg width="28" height="34" viewBox="0 0 28 34" fill="none" xmlns="http://www.w3.org/2000/svg">
<path d="M13.3584 32.7264L13.3476 32.7111L13.3362 32.6962C11.6051 30.4308 10.1113 28.5024 8.82206 26.8381C6.12129 23.3517 4.31875 21.0248 3.11498 19.1884C2.23907 17.8521 1.72159 16.8344 1.41556 15.8719C1.11219 14.9177 1 13.9656 1 12.7376C1 6.34126 6.66271 1 14 1C21.2679 1 27 6.34448 27 12.7376C27 13.9627 26.8839 14.9133 26.5748 15.8664C26.2627 16.8289 25.7367 17.847 24.8511 19.1845C23.6765 20.9586 21.9452 23.1877 19.3922 26.475C18.0367 28.2203 16.4494 30.264 14.5908 32.6962L14.5795 32.7111L14.5687 32.7264C14.4589 32.8817 14.2432 33 13.9635 33C13.6838 33 13.4682 32.8817 13.3584 32.7264Z" fill="white" stroke="#A35CA3" stroke-width="2"/>
<g clip-path="url(#clip0_994_13214)">
<path d="M12.625 8.75C12.625 8.28587 12.8094 7.84075 13.1376 7.51256C13.4658 7.18437 13.9109 7 14.375 7C14.8392 7 15.2843 7.18437 15.6125 7.51256C15.9407 7.84075 16.125 8.28587 16.125 8.75C16.125 9.21413 15.9407 9.65925 15.6125 9.98744C15.2843 10.3156 14.8392 10.5 14.375 10.5C13.9109 10.5 13.4658 10.3156 13.1376 9.98744C12.8094 9.65925 12.625 9.21413 12.625 8.75ZM13.9375 17.5V20.125C13.9375 20.609 13.5465 21 13.0625 21C12.5786 21 12.1875 20.609 12.1875 20.125V14.8695L11.6161 15.7773C11.359 16.1875 10.8176 16.3078 10.4102 16.0508C10.0028 15.7938 9.877 15.2551 10.134 14.8477L11.225 13.1168C11.9059 12.0312 13.0954 11.375 14.375 11.375C15.6547 11.375 16.8442 12.0313 17.525 13.1141L18.6161 14.8477C18.8731 15.2578 18.75 15.7965 18.3426 16.0535C17.9352 16.3105 17.3938 16.1875 17.1368 15.7801L16.5625 14.8695V20.125C16.5625 20.609 16.1715 21 15.6875 21C15.2036 21 14.8125 20.609 14.8125 20.125V17.5H13.9375Z" fill="#A35CA3"/>
</g>
<defs>
<clipPath id="clip0_994_13214">
<rect width="8.75" height="14" fill="white" transform="translate(10 7)"/>
</clipPath>
</defs>
</svg>