<svg width="28" height="35" viewBox="0 0 28 35" fill="none" xmlns="http://www.w3.org/2000/svg">
<path d="M13.3584 33.0125L13.3476 32.9972L13.3362 32.9824C11.6051 30.717 10.1113 28.7885 8.82209 27.1243C6.1213 23.6379 4.31875 21.3109 3.11498 19.4745C2.23907 18.1382 1.72159 17.1206 1.41556 16.158C1.11219 15.2039 1 14.2517 1 13.0237C1 6.62739 6.66271 1.28613 14 1.28613C21.2679 1.28613 27 6.63062 27 13.0237C27 14.2488 26.8839 15.1994 26.5748 16.1526C26.2627 17.1151 25.7367 18.1331 24.8511 19.4706C23.6765 21.2447 21.9452 23.4738 19.3922 26.7611C18.0366 28.5065 16.4494 30.5501 14.5908 32.9824L14.5795 32.9972L14.5687 33.0125C14.4589 33.1679 14.2432 33.2861 13.9635 33.2861C13.6838 33.2861 13.4682 33.1679 13.3584 33.0125Z" fill="white" stroke="#A35CA3" stroke-width="2"/>
<path d="M14 16.5361V12.1611H15.75V19.1611C15.75 19.6533 15.3398 20.0361 14.875 20.0361H7.875C7.38281 20.0361 7 19.6533 7 19.1611V12.1611H8.75V16.5361H14ZM22.5859 9.94629C22.9688 10.5205 22.5586 11.2861 21.875 11.2861H6.125C5.41406 11.2861 5.00391 10.5205 5.38672 9.94629L7.71094 6.44629C7.875 6.2002 8.14844 6.03613 8.44922 6.03613H19.5234C19.8242 6.03613 20.0977 6.2002 20.2617 6.44629L22.5859 9.94629ZM19.25 19.5986V12.1611H21V19.5986C21 19.8447 20.7812 20.0361 20.5625 20.0361H19.6875C19.4414 20.0361 19.25 19.8447 19.25 19.5986Z" fill="#A35CA3"/>
</svg>
