<svg width="27" height="35" viewBox="0 0 27 35" fill="none" xmlns="http://www.w3.org/2000/svg">
<path d="M12.9202 33.4073L12.9098 33.3921L12.8988 33.3772C11.2295 31.1118 9.78903 29.1834 8.54588 27.5192C5.94154 24.0327 4.20338 21.7058 3.04256 19.8693C2.19804 18.5332 1.6981 17.5142 1.40212 16.5487C1.10845 15.5909 1 14.6351 1 13.4046C1 6.97532 6.47677 1.66699 13.5 1.66699C20.4564 1.66699 26 6.97862 26 13.4046C26 14.6323 25.8877 15.5866 25.5885 16.5434C25.2867 17.5088 24.7786 18.5281 23.9247 19.8654C22.792 21.6396 21.1226 23.8686 18.6607 27.1559C17.3536 28.9013 15.8231 30.9449 14.0309 33.3772L14.0199 33.3921L14.0095 33.4073C13.9052 33.5605 13.7101 33.667 13.4648 33.667C13.2196 33.667 13.0245 33.5605 12.9202 33.4073Z" fill="white" stroke="#E182A5" stroke-width="2"/>
<g clip-path="url(#clip0_994_13217)">
<path d="M14 7C10.1336 7 7 10.1336 7 14V19.25C7 20.2152 7.78477 21 8.75 21H9.88203L11.6402 19.2418C10.7543 19.1543 10.0625 18.4078 10.0625 17.5V12.25C10.0625 11.2848 10.8473 10.5 11.8125 10.5H16.1875C17.1527 10.5 17.9375 11.2848 17.9375 12.25V17.5C17.9375 18.4078 17.2457 19.1543 16.3598 19.2418L18.118 21H19.25C20.2152 21 21 20.2152 21 19.25V14C21 10.1336 17.8664 7 14 7ZM16.882 21L15.132 19.25H12.868L11.118 21H16.882ZM12.0312 12.25C11.6676 12.25 11.375 12.5426 11.375 12.9062V13.125V14.875V15.0938C11.375 15.4574 11.6676 15.75 12.0312 15.75H12.25H12.6875H12.9062C13.2699 15.75 13.5625 15.4574 13.5625 15.0938V14.875V13.125V12.9062C13.5625 12.5426 13.2699 12.25 12.9062 12.25H12.6875H12.25H12.0312ZM14.4375 12.9062V13.125V14.875V15.0938C14.4375 15.4574 14.7301 15.75 15.0938 15.75H15.3125H15.75H15.9688C16.3324 15.75 16.625 15.4574 16.625 15.0938V14.875V13.125V12.9062C16.625 12.5426 16.3324 12.25 15.9688 12.25H15.75H15.3125H15.0938C14.7301 12.25 14.4375 12.5426 14.4375 12.9062ZM12.0312 17.9375C12.1174 17.9375 12.2028 17.9205 12.2824 17.8875C12.362 17.8546 12.4344 17.8062 12.4953 17.7453C12.5562 17.6844 12.6046 17.612 12.6375 17.5324C12.6705 17.4528 12.6875 17.3674 12.6875 17.2812C12.6875 17.1951 12.6705 17.1097 12.6375 17.0301C12.6046 16.9505 12.5562 16.8781 12.4953 16.8172C12.4344 16.7563 12.362 16.7079 12.2824 16.675C12.2028 16.642 12.1174 16.625 12.0312 16.625C11.9451 16.625 11.8597 16.642 11.7801 16.675C11.7005 16.7079 11.6281 16.7563 11.5672 16.8172C11.5063 16.8781 11.4579 16.9505 11.425 17.0301C11.392 17.1097 11.375 17.1951 11.375 17.2812C11.375 17.3674 11.392 17.4528 11.425 17.5324C11.4579 17.612 11.5063 17.6844 11.5672 17.7453C11.6281 17.8062 11.7005 17.8546 11.7801 17.8875C11.8597 17.9205 11.9451 17.9375 12.0312 17.9375ZM16.625 17.2812C16.625 17.1072 16.5559 16.9403 16.4328 16.8172C16.3097 16.6941 16.1428 16.625 15.9688 16.625C15.7947 16.625 15.6278 16.6941 15.5047 16.8172C15.3816 16.9403 15.3125 17.1072 15.3125 17.2812C15.3125 17.4553 15.3816 17.6222 15.5047 17.7453C15.6278 17.8684 15.7947 17.9375 15.9688 17.9375C16.1428 17.9375 16.3097 17.8684 16.4328 17.7453C16.5559 17.6222 16.625 17.4553 16.625 17.2812Z" fill="#E182A5"/>
</g>
<defs>
<clipPath id="clip0_994_13217">
<rect width="14" height="14" fill="white" transform="translate(7 7)"/>
</clipPath>
</defs>
</svg>
