<svg width="28" height="35" viewBox="0 0 28 35" fill="none" xmlns="http://www.w3.org/2000/svg">
<path d="M13.3584 33.3933L13.3476 33.3781L13.3362 33.3632C11.6051 31.0978 10.1113 29.1694 8.82209 27.5052C6.1213 24.0187 4.31875 21.6918 3.11498 19.8554C2.23907 18.5191 1.72159 17.5014 1.41556 16.5389C1.11219 15.5847 1 14.6326 1 13.4046C1 7.00825 6.66271 1.66699 14 1.66699C21.2679 1.66699 27 7.01148 27 13.4046C27 14.6297 26.8839 15.5803 26.5748 16.5334C26.2627 17.4959 25.7367 18.514 24.8511 19.8515C23.6765 21.6256 21.9452 23.8547 19.3922 27.142C18.0366 28.8873 16.4494 30.931 14.5908 33.3632L14.5795 33.3781L14.5687 33.3933C14.4589 33.5487 14.2432 33.667 13.9635 33.667C13.6838 33.667 13.4682 33.5487 13.3584 33.3933Z" fill="white" stroke="#A35CA3" stroke-width="2"/>
<path d="M20.5625 9.91699V10.3545C20.5625 10.4912 20.4531 10.5732 20.3438 10.5732H19.6875V10.9014C19.6875 11.0928 19.5234 11.2295 19.3594 11.2295H8.64062C8.44922 11.2295 8.3125 11.0928 8.3125 10.9014V10.5732H7.65625C7.51953 10.5732 7.4375 10.4912 7.4375 10.3545V9.91699C7.4375 9.8623 7.49219 9.75293 7.54688 9.72559L13.8906 7.31934C13.918 7.31934 13.9727 7.29199 14 7.29199C14 7.29199 14.0547 7.31934 14.082 7.31934L20.4258 9.72559C20.4805 9.75293 20.5625 9.8623 20.5625 9.91699ZM19.9062 18.2295C20.2617 18.2295 20.5625 18.5303 20.5625 18.8857V19.3232C20.5625 19.46 20.4531 19.542 20.3438 19.542H7.65625C7.51953 19.542 7.4375 19.46 7.4375 19.3232V18.8857C7.4375 18.5303 7.71094 18.2295 8.09375 18.2295H19.9062ZM9.625 11.667H11.375V16.917H13.125V11.667H14.875V16.917H16.625V11.667H18.375V16.917H19.3594C19.5234 16.917 19.6875 17.0811 19.6875 17.2451V17.792H8.3125V17.2451C8.3125 17.0811 8.44922 16.917 8.64062 16.917H9.625V11.667Z" fill="#A35CA3"/>
</svg>
