<svg width="27" height="34" viewBox="0 0 27 34" fill="none" xmlns="http://www.w3.org/2000/svg">
<path d="M12.9202 32.7403L12.9098 32.7251L12.8988 32.7102C11.2295 30.4448 9.78903 28.5164 8.54588 26.8522C5.94154 23.3657 4.20338 21.0388 3.04256 19.2023C2.19804 17.8662 1.6981 16.8472 1.40212 15.8818C1.10845 14.9239 1 13.9681 1 12.7376C1 6.30833 6.47677 1 13.5 1C20.4564 1 26 6.31163 26 12.7376C26 13.9653 25.8877 14.9196 25.5885 15.8764C25.2867 16.8418 24.7786 17.8611 23.9247 19.1984C22.792 20.9726 21.1226 23.2016 18.6607 26.4889C17.3536 28.2343 15.8231 30.2779 14.0309 32.7102L14.0199 32.7251L14.0095 32.7403C13.9052 32.8935 13.7101 33 13.4648 33C13.2196 33 13.0245 32.8935 12.9202 32.7403Z" fill="white" stroke="#5CA35C" stroke-width="2"/>
<g clip-path="url(#clip0_994_13215)">
<path d="M7.875 6.87503C7.875 6.64297 7.96719 6.42041 8.13128 6.25631C8.29538 6.09222 8.51794 6.00003 8.75 6.00003C8.98207 6.00003 9.20463 6.09222 9.36872 6.25631C9.53282 6.42041 9.625 6.64297 9.625 6.87503C9.625 7.1071 9.53282 7.32966 9.36872 7.49375C9.20463 7.65784 8.98207 7.75003 8.75 7.75003C8.51794 7.75003 8.29538 7.65784 8.13128 7.49375C7.96719 7.32966 7.875 7.1071 7.875 6.87503ZM19.25 10.375C19.25 10.143 19.3422 9.92041 19.5063 9.75631C19.6704 9.59222 19.8929 9.50003 20.125 9.50003C20.3571 9.50003 20.5796 9.59222 20.7437 9.75631C20.9078 9.92041 21 10.143 21 10.375C21 10.6071 20.9078 10.8297 20.7437 10.9937C20.5796 11.1578 20.3571 11.25 20.125 11.25C19.8929 11.25 19.6704 11.1578 19.5063 10.9937C19.3422 10.8297 19.25 10.6071 19.25 10.375ZM20.125 17.375C20.3571 17.375 20.5796 17.4672 20.7437 17.6313C20.9078 17.7954 21 18.018 21 18.25C21 18.4821 20.9078 18.7047 20.7437 18.8687C20.5796 19.0328 20.3571 19.125 20.125 19.125C19.8929 19.125 19.6704 19.0328 19.5063 18.8687C19.3422 18.7047 19.25 18.4821 19.25 18.25C19.25 18.018 19.3422 17.7954 19.5063 17.6313C19.6704 17.4672 19.8929 17.375 20.125 17.375ZM11.5664 10.1836C11.3094 9.92659 11.3094 9.51097 11.5664 9.25667L11.7934 9.02972C12.25 8.57308 12.5371 7.97425 12.6082 7.33167L12.6902 6.58245C12.7313 6.22425 13.0566 5.96448 13.4176 6.00277C13.7785 6.04105 14.0383 6.36644 13.9973 6.72738L13.9152 7.47659C13.8113 8.41448 13.3902 9.28948 12.723 9.95667L12.4961 10.1836C12.2391 10.4407 11.8234 10.4407 11.5691 10.1836H11.5664ZM16.8164 14.5039L17.0406 14.277C17.7078 13.6098 18.5828 13.1887 19.5207 13.0848L20.2699 13.0028C20.6309 12.9618 20.9535 13.2215 20.9945 13.5825C21.0355 13.9434 20.7758 14.266 20.4148 14.3071L19.6656 14.3891C19.023 14.4602 18.4242 14.7473 17.9676 15.2039L17.7461 15.4336C17.4891 15.6907 17.0734 15.6907 16.8191 15.4336C16.5648 15.1766 16.5621 14.761 16.8191 14.5067L16.8164 14.5039ZM20.8441 6.23245C21.0793 6.50863 21.0438 6.92425 20.7676 7.15667L20.4941 7.38909C20.0895 7.73089 19.5727 7.91136 19.0449 7.89769C18.591 7.88675 18.2082 8.23675 18.1809 8.69066L18.1316 9.51097C18.0633 10.6731 17.0844 11.57 15.9223 11.5399C15.7145 11.5344 15.5121 11.6055 15.3563 11.7395L15.0828 11.9719C14.8066 12.2071 14.391 12.1715 14.1586 11.8953C13.9262 11.6192 13.959 11.2035 14.2352 10.9711L14.5086 10.7387C14.9133 10.3969 15.4301 10.2164 15.9578 10.2301C16.4117 10.241 16.7945 9.89105 16.8219 9.43714L16.8711 8.61683C16.9395 7.45472 17.9184 6.55784 19.0805 6.58792C19.2883 6.59339 19.4906 6.5223 19.6465 6.38831L19.9199 6.15589C20.1961 5.92073 20.6117 5.95628 20.8441 6.23245ZM11.118 11.5071L15.493 15.8821C15.7035 16.0926 15.7938 16.3961 15.7281 16.686C15.6625 16.9758 15.4574 17.2164 15.1813 17.3203L14.0957 17.7278L9.27227 12.9043L9.67969 11.8188C9.7836 11.5399 10.0242 11.3348 10.3141 11.2719C10.6039 11.209 10.9074 11.2993 11.118 11.5071ZM8.31797 15.45L8.93594 13.8039L13.1961 18.0641L11.55 18.6821L8.31797 15.45ZM7.98164 16.3496L10.6504 19.0184L8.18125 19.9453C7.86133 20.0657 7.49766 19.9864 7.2543 19.7457C7.01094 19.5051 6.93438 19.1387 7.05469 18.8188L7.97891 16.3496H7.98164Z" fill="#5CA35C"/>
</g>
<defs>
<clipPath id="clip0_994_13215">
<rect width="14" height="14" fill="white" transform="translate(7 6)"/>
</clipPath>
</defs>
</svg>
