<svg width="28" height="34" viewBox="0 0 28 34" fill="none" xmlns="http://www.w3.org/2000/svg">
<path d="M13.3584 32.7264L13.3476 32.7111L13.3362 32.6962C11.6051 30.4308 10.1113 28.5024 8.82209 26.8382C6.1213 23.3517 4.31875 21.0248 3.11498 19.1884C2.23907 17.8521 1.72159 16.8344 1.41556 15.8719C1.11219 14.9177 1 13.9656 1 12.7376C1 6.34126 6.66271 1 14 1C21.2679 1 27 6.34448 27 12.7376C27 13.9627 26.8839 14.9133 26.5748 15.8664C26.2627 16.8289 25.7367 17.847 24.8511 19.1845C23.6765 20.9586 21.9452 23.1877 19.3922 26.475C18.0366 28.2203 16.4494 30.264 14.5908 32.6962L14.5795 32.7111L14.5687 32.7264C14.4589 32.8817 14.2432 33 13.9635 33C13.6838 33 13.4682 32.8817 13.3584 32.7264Z" fill="white" stroke="#5C7FA3" stroke-width="2"/>
<path d="M14 11C12.5938 11 11.5 9.90625 11.5 8.5C11.5 7.125 12.5938 6 14 6C15.375 6 16.5 7.125 16.5 8.5C16.5 9.90625 15.375 11 14 11ZM12.3125 18.7812L13.25 20C13.6562 20.5625 13.5312 21.3438 13 21.75C12.75 21.9375 12.5 22 12.25 22C11.8438 22 11.4688 21.8438 11.25 21.5L9.75 19.5C9.40625 19.0625 9.40625 18.4375 9.75 17.9688L11.1875 16.1875L13.125 17.7812L12.3125 18.7812ZM16.7812 16.1875L18.2188 17.9688C18.5625 18.4375 18.5625 19.0625 18.25 19.5L16.75 21.5C16.5 21.8438 16.125 22 15.75 22C15.4688 22 15.2188 21.9375 15 21.75C14.4375 21.3438 14.3125 20.5625 14.75 20L15.6562 18.7812L14.8438 17.7812L16.7812 16.1875ZM19.75 10.5312C20.1562 11.125 20.0312 11.875 19.4688 12.2812L18.1875 13.1875C17.6562 13.5625 17.0938 13.8438 16.5 14.0625V15H11.5V14.0625C10.9062 13.8438 10.3125 13.5625 9.78125 13.1875L8.53125 12.2812C7.96875 11.875 7.8125 11.125 8.21875 10.5312C8.625 9.96875 9.375 9.84375 9.96875 10.25L11.2188 11.125C12.875 12.2812 15.0938 12.2812 16.75 11.125L18.0312 10.25C18.5938 9.84375 19.375 9.96875 19.75 10.5312Z" fill="#5C7FA3"/>
</svg>
