<svg width="28" height="35" viewBox="0 0 28 35" fill="none" xmlns="http://www.w3.org/2000/svg">
<path d="M13.3584 33.2976L13.3476 33.2824L13.3362 33.2675C11.6051 31.0021 10.1113 29.0737 8.82209 27.4095C6.1213 23.923 4.31875 21.5961 3.11498 19.7597C2.23907 18.4234 1.72159 17.4057 1.41556 16.4432C1.11219 15.489 1 14.5369 1 13.3089C1 6.91255 6.66271 1.57129 14 1.57129C21.2679 1.57129 27 6.91577 27 13.3089C27 14.5339 26.8839 15.4845 26.5748 16.4377C26.2627 17.4002 25.7367 18.4183 24.8511 19.7558C23.6765 21.5299 21.9452 23.759 19.3922 27.0463C18.0366 28.7916 16.4494 30.8353 14.5908 33.2675L14.5795 33.2824L14.5687 33.2976C14.4589 33.453 14.2432 33.5713 13.9635 33.5713C13.6838 33.5713 13.4682 33.453 13.3584 33.2976Z" fill="white" stroke="#5CA35C" stroke-width="2"/>
<path d="M8.75 8.94629C12.1133 8.94629 14.875 11.708 14.875 15.0713V19.0088C14.875 19.2549 14.6562 19.4463 14.4375 19.4463H13.5625C13.3164 19.4463 13.125 19.2549 13.125 19.0088V15.0713C9.73438 15.0713 7 12.3369 7 8.94629H8.75ZM19.25 7.19629H21C21 10.3682 18.5938 12.9932 15.5039 13.2939C15.2031 12.2002 14.6562 11.1885 13.8906 10.3682C14.9297 8.48145 16.9258 7.19629 19.25 7.19629Z" fill="#5CA35C"/>
</svg>
