<svg width="28" height="34" viewBox="0 0 28 34" fill="none" xmlns="http://www.w3.org/2000/svg">
<path d="M13.3584 32.7264L13.3476 32.7111L13.3362 32.6962C11.6051 30.4308 10.1113 28.5024 8.82209 26.8382C6.1213 23.3517 4.31875 21.0248 3.11498 19.1884C2.23907 17.8521 1.72159 16.8344 1.41556 15.8719C1.11219 14.9177 1 13.9656 1 12.7376C1 6.34126 6.66271 1 14 1C21.2679 1 27 6.34448 27 12.7376C27 13.9627 26.8839 14.9133 26.5748 15.8664C26.2627 16.8289 25.7367 17.847 24.8511 19.1845C23.6765 20.9586 21.9452 23.1877 19.3922 26.475C18.0366 28.2203 16.4494 30.264 14.5908 32.6962L14.5795 32.7111L14.5687 32.7264C14.4589 32.8817 14.2432 33 13.9635 33C13.6838 33 13.4682 32.8817 13.3584 32.7264Z" fill="white" stroke="#E182A5" stroke-width="2"/>
<g clip-path="url(#clip0_994_13219)">
<path d="M20.8695 13.8641C21.3344 13.8641 21.7445 13.4812 21.7445 12.9863C21.7719 12.7402 21.6625 12.5215 21.4437 12.3301L14.4629 6.19141C14.2988 6.05469 14.0801 6 13.8887 6C13.6973 6 13.4785 6.02734 13.2871 6.21875L6.27344 12.3301C6.08203 12.5215 6 12.7402 6 12.9863C6 13.4785 6.38281 13.8641 6.875 13.8641H7.75V18.25C7.75 19.2152 8.53477 20 9.5 20H18.2637C19.2344 20 20.0191 19.2125 20.0137 18.2418L19.9945 13.8613H20.8695V13.8641ZM13 11.6875C13 11.4469 13.1969 11.25 13.4375 11.25H14.3125C14.5531 11.25 14.75 11.4469 14.75 11.6875V13H16.0625C16.3031 13 16.5 13.1969 16.5 13.4375V14.3125C16.5 14.5531 16.3031 14.75 16.0625 14.75H14.75V16.0625C14.75 16.3031 14.5531 16.5 14.3125 16.5H13.4375C13.1969 16.5 13 16.3031 13 16.0625V14.75H11.6875C11.4469 14.75 11.25 14.5531 11.25 14.3125V13.4375C11.25 13.1969 11.4469 13 11.6875 13H13V11.6875Z" fill="#E182A5"/>
</g>
<defs>
<clipPath id="clip0_994_13219">
<rect width="15.75" height="14" fill="white" transform="translate(6 6)"/>
</clipPath>
</defs>
</svg>
