<svg width="28" height="34" viewBox="0 0 28 34" fill="none" xmlns="http://www.w3.org/2000/svg">
<path d="M13.3584 32.7264L13.3476 32.7111L13.3362 32.6962C11.6051 30.4308 10.1113 28.5024 8.82209 26.8382C6.1213 23.3517 4.31875 21.0248 3.11498 19.1884C2.23907 17.8521 1.72159 16.8344 1.41556 15.8719C1.11219 14.9177 1 13.9656 1 12.7376C1 6.34126 6.66271 1 14 1C21.2679 1 27 6.34448 27 12.7376C27 13.9627 26.8839 14.9133 26.5748 15.8664C26.2627 16.8289 25.7367 17.847 24.8511 19.1845C23.6765 20.9586 21.9452 23.1877 19.3922 26.475C18.0366 28.2203 16.4494 30.264 14.5908 32.6962L14.5795 32.7111L14.5687 32.7264C14.4589 32.8817 14.2432 33 13.9635 33C13.6838 33 13.4682 32.8817 13.3584 32.7264Z" fill="white" stroke="#82E1BE" stroke-width="2"/>
<g clip-path="url(#clip0_979_13197)">
<path d="M21.625 8.625C21.625 8.76445 21.6141 8.90391 21.5922 9.03789C22.1418 9.43711 22.5 10.0824 22.5 10.8125V13H19.875V19.125V20H18.125V19.125V13H15.5V10.8125C15.5 10.0824 15.8582 9.43711 16.4078 9.03789C16.3859 8.90391 16.375 8.76445 16.375 8.625C16.375 7.17578 17.5508 6 19 6C20.4492 6 21.625 7.17578 21.625 8.625ZM5.875 11.25H14.625V14.75H5.875V11.25ZM5.875 15.625H7.625H12.875H14.625H15.5V17.375H14.625V19.125V20H12.875V19.125V17.375H7.625V19.125V20H5.875V19.125V17.375H5V15.625H5.875Z" fill="#82E1BE"/>
</g>
<defs>
<clipPath id="clip0_979_13197">
<rect width="17.5" height="14" fill="white" transform="translate(5 6)"/>
</clipPath>
</defs>
</svg>
