<svg width="28" height="34" viewBox="0 0 28 34" fill="none" xmlns="http://www.w3.org/2000/svg">
<path d="M13.3584 32.7264L13.3476 32.7111L13.3362 32.6962C11.6051 30.4308 10.1113 28.5024 8.82209 26.8382C6.1213 23.3517 4.31875 21.0248 3.11498 19.1884C2.23907 17.8521 1.72159 16.8344 1.41556 15.8719C1.11219 14.9177 1 13.9656 1 12.7376C1 6.34126 6.66271 1 14 1C21.2679 1 27 6.34448 27 12.7376C27 13.9627 26.8839 14.9133 26.5748 15.8664C26.2627 16.8289 25.7367 17.847 24.8511 19.1845C23.6765 20.9586 21.9452 23.1877 19.3922 26.475C18.0366 28.2203 16.4494 30.264 14.5908 32.6962L14.5795 32.7111L14.5687 32.7264C14.4589 32.8817 14.2432 33 13.9635 33C13.6838 33 13.4682 32.8817 13.3584 32.7264Z" fill="white" stroke="#5CA35C" stroke-width="2"/>
<path d="M10.418 14.2539C10.2812 14.1172 10.1445 14.0352 9.98047 13.9258L11.8672 11.2461C12.0586 10.9727 12.3047 10.7266 12.6055 10.5352L14.793 8.94922C15.4766 8.45703 16.3516 8.26562 17.1992 8.45703L19.9609 9.03125C20.6445 9.19531 21.1094 9.90625 20.9453 10.5898C20.8086 11.3008 20.0977 11.7656 19.3867 11.6016L16.6523 11.0273C16.543 11 16.4062 11.0273 16.2969 11.082L15.8047 11.4375L18.8945 13.6523C18.4297 13.6797 17.9648 13.8711 17.5547 14.2539C17.4453 14.3359 17.1445 14.5 16.625 14.5C16.0781 14.5 15.7773 14.3359 15.668 14.2539C15.2305 13.8438 14.7383 13.625 14.2188 13.625H13.7539C13.2344 13.625 12.7422 13.8438 12.3047 14.2539C12.1953 14.3359 11.8945 14.5 11.375 14.5C10.8281 14.5 10.5273 14.3359 10.418 14.2539ZM22.3125 15.375C22.5312 15.375 22.75 15.5938 22.75 15.8125V16.6875C22.75 16.9336 22.5312 17.125 22.3125 17.125H21.875C20.8086 17.125 19.8789 16.7969 19.25 16.2773C18.5938 16.7969 17.6641 17.125 16.625 17.125C15.5586 17.125 14.6289 16.7969 14 16.2773C13.3438 16.7969 12.4141 17.125 11.375 17.125C10.3086 17.125 9.37891 16.7969 8.75 16.2773C8.09375 16.7969 7.16406 17.125 6.125 17.125H5.6875C5.44141 17.125 5.25 16.9336 5.25 16.6875V15.8125C5.25 15.5938 5.44141 15.375 5.6875 15.375H6.125C6.83594 15.375 7.35547 15.1562 7.65625 14.9102C7.875 14.6641 8.17578 14.5 8.50391 14.5H8.96875C9.29688 14.5 9.59766 14.6641 9.81641 14.9102C10.1172 15.1562 10.6367 15.375 11.375 15.375C12.0859 15.375 12.6055 15.1562 12.9062 14.9102C13.125 14.6641 13.4258 14.5 13.7539 14.5H14.2188C14.5469 14.5 14.8477 14.6641 15.0664 14.9102C15.3672 15.1562 15.8867 15.375 16.625 15.375C17.3359 15.375 17.8555 15.1562 18.1562 14.9102C18.375 14.6641 18.6758 14.5 19.0039 14.5H19.4688C19.7969 14.5 20.0977 14.6641 20.3164 14.9102C20.6172 15.1562 21.1367 15.375 21.875 15.375H22.3125ZM8.3125 12.75C7.08203 12.75 6.125 11.793 6.125 10.5625C6.125 9.35938 7.08203 8.375 8.3125 8.375C9.51562 8.375 10.5 9.35938 10.5 10.5625C10.5 11.793 9.51562 12.75 8.3125 12.75Z" fill="#5CA35C"/>
</svg>
