<svg width="28" height="35" viewBox="0 0 28 35" fill="none" xmlns="http://www.w3.org/2000/svg">
<path d="M13.3584 33.326L13.3476 33.3107L13.3362 33.2959C11.6051 31.0304 10.1113 29.102 8.82209 27.4378C6.1213 23.9513 4.31875 21.6244 3.11498 19.788C2.23907 18.4517 1.72159 17.434 1.41556 16.4715C1.11219 15.5173 1 14.5652 1 13.3372C1 6.94087 6.66271 1.59961 14 1.59961C21.2679 1.59961 27 6.94409 27 13.3372C27 14.5623 26.8839 15.5129 26.5748 16.466C26.2627 17.4286 25.7367 18.4466 24.8511 19.7841C23.6765 21.5582 21.9452 23.7873 19.3922 27.0746C18.0366 28.8199 16.4494 30.8636 14.5908 33.2959L14.5795 33.3107L14.5687 33.326C14.4589 33.4813 14.2432 33.5996 13.9635 33.5996C13.6838 33.5996 13.4682 33.4813 13.3584 33.326Z" fill="white" stroke="#A35CA3" stroke-width="2"/>
<path d="M10.0625 8.09961C12.2227 8.09961 14 9.87695 14 12.0371V18.5996H7C6.50781 18.5996 6.125 18.2168 6.125 17.7246V12.0371C6.125 9.87695 7.875 8.09961 10.0625 8.09961ZM12.25 12.9121V12.0371C12.25 11.8184 12.0312 11.5996 11.8125 11.5996H8.3125C8.06641 11.5996 7.875 11.8184 7.875 12.0371V12.9121C7.875 13.1582 8.06641 13.3496 8.3125 13.3496H11.8125C12.0312 13.3496 12.25 13.1582 12.25 12.9121ZM17.9375 8.09961C20.0977 8.09961 21.875 9.87695 21.875 12.0371V17.7246C21.875 18.2168 21.4648 18.5996 21 18.5996H14.875V12.0371C14.875 10.4238 14.0547 8.97461 12.7969 8.09961H17.9375ZM20.125 13.7871V12.0371C20.125 11.8184 19.9062 11.5996 19.6875 11.5996H16.8438C16.707 11.5996 16.625 11.709 16.625 11.8184V12.2559C16.625 12.3926 16.707 12.4746 16.8438 12.4746H18.375V13.7871C18.375 14.0332 18.5664 14.2246 18.8125 14.2246H19.6875C19.9062 14.2246 20.125 14.0332 20.125 13.7871Z" fill="#A35CA3"/>
</svg>
