<svg width="28" height="35" viewBox="0 0 28 35" fill="none" xmlns="http://www.w3.org/2000/svg">
<path d="M13.3584 33.1267L13.3476 33.1115L13.3362 33.0966C11.6051 30.8312 10.1113 28.9028 8.82209 27.2386C6.1213 23.7521 4.31875 21.4252 3.11498 19.5888C2.23907 18.2525 1.72159 17.2348 1.41556 16.2723C1.11219 15.3181 1 14.366 1 13.138C1 6.74165 6.66271 1.40039 14 1.40039C21.2679 1.40039 27 6.74488 27 13.138C27 14.363 26.8839 15.3136 26.5748 16.2668C26.2627 17.2293 25.7367 18.2474 24.8511 19.5849C23.6765 21.359 21.9452 23.5881 19.3922 26.8754C18.0366 28.6207 16.4494 30.6644 14.5908 33.0966L14.5795 33.1115L14.5687 33.1267C14.4589 33.2821 14.2432 33.4004 13.9635 33.4004C13.6838 33.4004 13.4682 33.2821 13.3584 33.1267Z" fill="white" stroke="#8E82E1" stroke-width="2"/>
<path d="M20.7266 11.373C20.8359 11.291 21 11.373 21 11.5098V17.0879C21 17.8262 20.3984 18.4004 19.6875 18.4004H8.3125C7.57422 18.4004 7 17.8262 7 17.0879V11.5098C7 11.373 7.13672 11.291 7.24609 11.373C7.875 11.8652 8.66797 12.4668 11.457 14.4902C12.0312 14.9004 13.0156 15.8027 14 15.8027C14.957 15.8027 15.9688 14.9004 16.5156 14.4902C19.3047 12.4668 20.0977 11.8652 20.7266 11.373ZM14 14.9004C13.3438 14.9277 12.4414 14.1074 11.9766 13.7793C8.33984 11.1543 8.06641 10.9082 7.24609 10.252C7.08203 10.1426 7 9.95117 7 9.73242V9.21289C7 8.50195 7.57422 7.90039 8.3125 7.90039H19.6875C20.3984 7.90039 21 8.50195 21 9.21289V9.73242C21 9.95117 20.8906 10.1426 20.7266 10.252C19.9062 10.9082 19.6328 11.1543 15.9961 13.7793C15.5312 14.1074 14.6289 14.9277 14 14.9004Z" fill="#8E82E1"/>
</svg>
