<svg width="28" height="34" viewBox="0 0 28 34" fill="none" xmlns="http://www.w3.org/2000/svg">
<path d="M13.3584 32.7264L13.3476 32.7111L13.3362 32.6962C11.6051 30.4308 10.1113 28.5024 8.82209 26.8382C6.1213 23.3517 4.31875 21.0248 3.11498 19.1884C2.23907 17.8521 1.72159 16.8344 1.41556 15.8719C1.11219 14.9177 1 13.9656 1 12.7376C1 6.34126 6.66271 1 14 1C21.2679 1 27 6.34448 27 12.7376C27 13.9627 26.8839 14.9133 26.5748 15.8664C26.2627 16.8289 25.7367 17.847 24.8511 19.1845C23.6765 20.9586 21.9452 23.1877 19.3922 26.475C18.0366 28.2203 16.4494 30.264 14.5908 32.6962L14.5795 32.7111L14.5687 32.7264C14.4589 32.8817 14.2432 33 13.9635 33C13.6838 33 13.4682 32.8817 13.3584 32.7264Z" fill="white" stroke="#A3805C" stroke-width="2"/>
<path d="M14.5 12.75C12.5586 12.75 11 11.1914 11 9.25C11 7.33594 12.5586 5.75 14.5 5.75C16.4141 5.75 18 7.33594 18 9.25C18 11.1914 16.4141 12.75 14.5 12.75ZM11.2188 17.3438C11.2188 16.9883 11.4922 16.6875 11.875 16.6875C12.2305 16.6875 12.5312 16.9883 12.5312 17.3438C12.5312 17.7266 12.2305 18 11.875 18C11.4922 18 11.2188 17.7266 11.2188 17.3438ZM17.125 13.6523C19.0664 13.7617 20.625 15.3477 20.625 17.3164V18.5469C20.625 19.2031 20.0508 19.75 19.3945 19.75H9.57812C8.92188 19.75 8.375 19.2031 8.375 18.5469V17.3164C8.375 15.4844 9.6875 13.9805 11.4375 13.707V15.8945C10.8086 16.0859 10.3438 16.6602 10.3438 17.3711C10.3438 18.1914 11.0273 18.9023 11.875 18.9023C12.7227 18.9023 13.4062 18.1914 13.4062 17.3711C13.4062 16.6602 12.9414 16.0859 12.3125 15.8945V13.6797C12.5039 13.707 12.7227 13.7344 12.9141 13.8164C13.4062 13.9805 13.9531 14.0898 14.5 14.0898C15.0469 14.0898 15.5664 13.9805 16.0586 13.8164C16.1133 13.7891 16.168 13.7891 16.25 13.7617V14.9922C15.2383 15.2109 14.5 16.0859 14.5 17.125V18.3281C14.5 18.5469 14.6641 18.7383 14.8555 18.7656L15.7305 18.875C15.8398 18.9023 15.9492 18.8203 15.9766 18.7109L16.0586 18.2734C16.0859 18.1641 16.0039 18.0547 15.8945 18.0273L15.375 17.918V17.1797C15.375 15.3477 18 15.4297 18 17.125V17.918L17.4531 18.0273C17.3438 18.0547 17.2617 18.1641 17.2891 18.2734L17.3711 18.7109C17.3984 18.8203 17.5078 18.9023 17.6172 18.875L18.5195 18.7109C18.7109 18.6562 18.875 18.4922 18.875 18.2734V17.125C18.875 16.0859 18.1094 15.1836 17.125 14.9922V13.6523Z" fill="#A3805C"/>
</svg>
