<svg width="28" height="35" viewBox="0 0 28 35" fill="none" xmlns="http://www.w3.org/2000/svg">
<path d="M13.3584 32.9266L13.3476 32.9113L13.3362 32.8964C11.6051 30.631 10.1113 28.7026 8.82209 27.0384C6.1213 23.5519 4.31875 21.225 3.11498 19.3886C2.23907 18.0523 1.72159 17.0346 1.41556 16.0721C1.11219 15.1179 1 14.1658 1 12.9378C1 6.54146 6.66271 1.2002 14 1.2002C21.2679 1.2002 27 6.54468 27 12.9378C27 14.1629 26.8839 15.1135 26.5748 16.0666C26.2627 17.0291 25.7367 18.0472 24.8511 19.3847C23.6765 21.1588 21.9452 23.3879 19.3922 26.6752C18.0366 28.4205 16.4494 30.4642 14.5908 32.8964L14.5795 32.9113L14.5687 32.9266C14.4589 33.0819 14.2432 33.2002 13.9635 33.2002C13.6838 33.2002 13.4682 33.0819 13.3584 32.9266Z" fill="white" stroke="#A3805C" stroke-width="2"/>
<path d="M18.4375 8.5752C19.6406 8.5752 20.625 9.55957 20.625 10.7627V14.29C20.625 15.165 20.1055 15.958 19.3125 16.2861L17.125 17.2705V18.4189C17.125 18.8018 16.8242 19.0752 16.4688 19.0752H9.03125C8.64844 19.0752 8.375 18.8018 8.375 18.4189V7.48145C8.375 7.12598 8.64844 6.8252 9.03125 6.8252H16.4688C16.8242 6.8252 17.125 7.12598 17.125 7.48145V8.5752H18.4375ZM18.875 14.29V10.7627C18.875 10.5439 18.6562 10.3252 18.4375 10.3252H17.125V15.3564L18.6016 14.7002C18.7383 14.6455 18.8477 14.4541 18.875 14.29ZM14.0625 16.4502C14.2812 16.4502 14.5 16.2588 14.5 16.0127V9.8877C14.5 9.66895 14.2812 9.4502 14.0625 9.4502C13.8164 9.4502 13.625 9.66895 13.625 9.8877V16.0127C13.625 16.2588 13.8164 16.4502 14.0625 16.4502ZM11.4375 16.4502C11.6562 16.4502 11.875 16.2588 11.875 16.0127V9.8877C11.875 9.66895 11.6562 9.4502 11.4375 9.4502C11.1914 9.4502 11 9.66895 11 9.8877V16.0127C11 16.2588 11.1914 16.4502 11.4375 16.4502Z" fill="#A3805C"/>
</svg>
