<svg width="27" height="35" viewBox="0 0 27 35" fill="none" xmlns="http://www.w3.org/2000/svg">
<path d="M12.9202 33.2403L12.9098 33.2251L12.8988 33.2102C11.2295 30.9448 9.78903 29.0164 8.54588 27.3522C5.94154 23.8657 4.20338 21.5388 3.04256 19.7023C2.19804 18.3662 1.6981 17.3472 1.40212 16.3818C1.10845 15.4239 1 14.4681 1 13.2376C1 6.80833 6.47677 1.5 13.5 1.5C20.4564 1.5 26 6.81163 26 13.2376C26 14.4653 25.8877 15.4196 25.5885 16.3764C25.2867 17.3418 24.7786 18.3611 23.9247 19.6984C22.792 21.4726 21.1226 23.7016 18.6607 26.9889C17.3536 28.7343 15.8231 30.7779 14.0309 33.2102L14.0199 33.2251L14.0095 33.2403C13.9052 33.3935 13.7101 33.5 13.4648 33.5C13.2196 33.5 13.0245 33.3935 12.9202 33.2403Z" fill="white" stroke="#FFB329" stroke-width="2"/>
<path d="M19.625 8.875V15.875C19.625 17.2969 17.9297 18.5 16.043 18.5L17.7656 19.8672C17.9297 20.0039 17.8477 20.25 17.6562 20.25H9.34375C9.125 20.25 9.04297 20.0039 9.20703 19.8672L10.9297 18.5C9.04297 18.5 7.375 17.2969 7.375 15.875V8.875C7.375 7.42578 9.125 6.25 10.875 6.25H16.125C17.9023 6.25 19.625 7.42578 19.625 8.875ZM18.3125 12.5938V9.53125C18.3125 9.17578 18.0117 8.875 17.6562 8.875H9.34375C8.96094 8.875 8.6875 9.17578 8.6875 9.53125V12.5938C8.6875 12.9766 8.96094 13.25 9.34375 13.25H17.6562C18.0117 13.25 18.3125 12.9766 18.3125 12.5938ZM13.5 14.3438C12.6523 14.3438 11.9688 15.0547 11.9688 15.875C11.9688 16.7227 12.6523 17.4062 13.5 17.4062C14.3203 17.4062 15.0312 16.7227 15.0312 15.875C15.0312 15.0547 14.3203 14.3438 13.5 14.3438Z" fill="#FFB329"/>
</svg>
