<svg width="28" height="34" viewBox="0 0 28 34" fill="none" xmlns="http://www.w3.org/2000/svg">
<path d="M13.3584 32.7264L13.3476 32.7111L13.3362 32.6962C11.6051 30.4308 10.1113 28.5024 8.82209 26.8382C6.1213 23.3517 4.31875 21.0248 3.11498 19.1884C2.23907 17.8521 1.72159 16.8344 1.41556 15.8719C1.11219 14.9177 1 13.9656 1 12.7376C1 6.34126 6.66271 1 14 1C21.2679 1 27 6.34448 27 12.7376C27 13.9627 26.8839 14.9133 26.5748 15.8664C26.2627 16.8289 25.7367 17.847 24.8511 19.1845C23.6765 20.9586 21.9452 23.1877 19.3922 26.475C18.0366 28.2203 16.4494 30.264 14.5908 32.6962L14.5795 32.7111L14.5687 32.7264C14.4589 32.8817 14.2432 33 13.9635 33C13.6838 33 13.4682 32.8817 13.3584 32.7264Z" fill="white" stroke="#5CA35C" stroke-width="2"/>
<path d="M12.0312 12.9141C12.1133 13.2969 11.7031 13.5977 11.375 13.4062L10.2539 12.6953L8.85938 14.9375C8.50391 15.5117 8.91406 16.25 9.625 16.25H11.0469C11.2109 16.25 11.375 16.4141 11.375 16.5781V17.6719C11.375 17.8633 11.2109 18 11.0469 18H9.625C7.54688 18 6.28906 15.7305 7.38281 14.0078L8.77734 11.7656L7.65625 11.082C7.32812 10.8633 7.41016 10.3711 7.79297 10.2891L10.8008 9.57812C11.0469 9.52344 11.293 9.6875 11.3477 9.90625L12.0312 12.9141ZM14.7383 7.91016C14.3828 7.39062 13.5898 7.36328 13.2344 7.9375L12.7422 8.70312C12.6602 8.86719 12.4414 8.92188 12.3047 8.8125L11.375 8.23828C11.2109 8.12891 11.1836 7.9375 11.2656 7.77344L11.7578 7.00781C12.7969 5.33984 15.1758 5.36719 16.2148 7.00781L17.3359 8.8125L18.457 8.10156C18.7852 7.91016 19.1953 8.21094 19.1133 8.56641L18.4023 11.6016C18.375 11.8203 18.1289 11.9844 17.8828 11.9297L14.875 11.2188C14.4922 11.1367 14.4102 10.6445 14.7383 10.4258L15.8594 9.74219L14.7383 7.91016ZM20.5898 14.0078C21.6836 15.7578 20.4258 18 18.3477 18H15.75V19.3125C15.75 19.7227 15.2578 19.9141 14.9844 19.6406L12.7969 17.4531C12.6328 17.2891 12.6328 16.9883 12.7969 16.8242L14.9844 14.6367C15.2578 14.3633 15.75 14.5547 15.75 14.9648V16.2773H18.3477C19.0586 16.2773 19.4688 15.5117 19.1133 14.9375L18.3477 13.707C18.2656 13.5703 18.293 13.3516 18.457 13.2695L19.3867 12.6953C19.5234 12.5859 19.7422 12.6406 19.8242 12.8047L20.5898 14.0078Z" fill="#5CA35C"/>
</svg>
