<svg width="28" height="34" viewBox="0 0 28 34" fill="none" xmlns="http://www.w3.org/2000/svg">
<path d="M13.3584 32.7264L13.3476 32.7111L13.3362 32.6962C11.6051 30.4308 10.1113 28.5024 8.82206 26.8381C6.12129 23.3517 4.31875 21.0248 3.11498 19.1884C2.23907 17.8521 1.72159 16.8344 1.41556 15.8719C1.11219 14.9177 1 13.9656 1 12.7376C1 6.34126 6.66271 1 14 1C21.2679 1 27 6.34448 27 12.7376C27 13.9627 26.8839 14.9133 26.5748 15.8664C26.2627 16.8289 25.7367 17.847 24.8511 19.1845C23.6765 20.9586 21.9452 23.1877 19.3922 26.475C18.0367 28.2203 16.4494 30.264 14.5908 32.6962L14.5795 32.7111L14.5687 32.7264C14.4589 32.8817 14.2432 33 13.9635 33C13.6838 33 13.4682 32.8817 13.3584 32.7264Z" fill="white" stroke="#FFB329" stroke-width="2"/>
<path d="M7.57422 5.99609L14.1367 12.0664C14.9023 11.3828 14.6289 11.6289 15.4492 10.8906C14.875 9.90625 14.9844 8.83984 15.8867 7.9375C16.4883 7.33594 18.4844 5.91406 18.5938 5.85938C19.0312 5.53125 19.6055 6.16016 19.2773 6.57031L17.0352 9.14062C17.0078 9.16797 17.1172 9.30469 17.1719 9.25L19.8242 7.08984C20.2344 6.76172 20.8633 7.39062 20.5078 7.80078L18.375 10.4531C18.3203 10.4805 18.457 10.6172 18.4844 10.5625L21.0547 8.34766C21.4648 8.01953 22.0938 8.59375 21.7656 9.03125C21.6836 9.14062 20.2891 11.1367 19.6875 11.7383C18.7578 12.668 17.6914 12.75 16.7344 12.1758C15.9961 12.9961 16.3242 12.6133 15.6133 13.4336L19.8242 17.3711C20.207 17.6992 20.207 18.2734 19.8516 18.6289L18.9766 19.5039C18.6211 19.8594 18.0469 19.832 17.7188 19.4766C17.1992 18.875 12.2227 13.0234 12.0312 12.75C7.65625 12.75 6.125 10.2891 6.125 6.65234C6.125 5.88672 7.02734 5.47656 7.57422 5.99609ZM8.12109 18.6289C7.76562 18.2734 7.79297 17.6992 8.14844 17.3438L11.9219 14.0078L13.4805 15.8398L10.2812 19.4766C9.92578 19.832 9.35156 19.8594 8.99609 19.5039L8.12109 18.6289Z" fill="#FFB329"/>
</svg>
