<svg width="28" height="34" viewBox="0 0 28 34" fill="none" xmlns="http://www.w3.org/2000/svg">
<path d="M13.3584 32.7264L13.3476 32.7111L13.3362 32.6962C11.6051 30.4308 10.1113 28.5024 8.82209 26.8382C6.1213 23.3517 4.31875 21.0248 3.11498 19.1884C2.23907 17.8521 1.72159 16.8344 1.41556 15.8719C1.11219 14.9177 1 13.9656 1 12.7376C1 6.34126 6.66271 1 14 1C21.2679 1 27 6.34448 27 12.7376C27 13.9627 26.8839 14.9133 26.5748 15.8664C26.2627 16.8289 25.7367 17.847 24.8511 19.1845C23.6765 20.9586 21.9452 23.1877 19.3922 26.475C18.0366 28.2203 16.4494 30.264 14.5908 32.6962L14.5795 32.7111L14.5687 32.7264C14.4589 32.8817 14.2432 33 13.9635 33C13.6838 33 13.4682 32.8817 13.3584 32.7264Z" fill="white" stroke="#A3805C" stroke-width="2"/>
<path d="M20.5625 14.0078C20.4805 14.3086 20.207 14.5 19.9062 14.5H11.8945L12.0859 15.375H19.4141C19.8242 15.375 20.1523 15.7852 20.043 16.1953L19.9062 16.8516C20.4258 17.0977 20.7812 17.6172 20.7812 18.2188C20.7812 19.0664 20.0703 19.75 19.25 19.75C18.4023 19.75 17.7188 19.0664 17.7188 18.2188C17.7188 17.8086 17.8828 17.4258 18.1562 17.125H12.4414C12.7148 17.4258 12.9062 17.8086 12.9062 18.2188C12.9062 19.0664 12.1953 19.75 11.375 19.75C10.5273 19.75 9.84375 19.0664 9.84375 18.2188C9.84375 17.6719 10.1445 17.1797 10.6094 16.9062L8.66797 7.5H6.78125C6.39844 7.5 6.125 7.22656 6.125 6.84375V6.40625C6.125 6.05078 6.39844 5.75 6.78125 5.75H9.57031C9.87109 5.75 10.1445 5.99609 10.2266 6.29688L10.4727 7.5H21.1914C21.6289 7.5 21.9297 7.91016 21.8477 8.32031L20.5625 14.0078Z" fill="#A3805C"/>
</svg>
