<svg width="28" height="35" viewBox="0 0 28 35" fill="none" xmlns="http://www.w3.org/2000/svg">
<path d="M13.3584 33.5594L13.3476 33.5441L13.3362 33.5293C11.6051 31.2638 10.1113 29.3354 8.82209 27.6712C6.1213 24.1847 4.31875 21.8578 3.11498 20.0214C2.23907 18.6851 1.72159 17.6674 1.41556 16.7049C1.11219 15.7507 1 14.7986 1 13.5706C1 7.17427 6.66271 1.83301 14 1.83301C21.2679 1.83301 27 7.17749 27 13.5706C27 14.7957 26.8839 15.7463 26.5748 16.6994C26.2627 17.662 25.7367 18.68 24.8511 20.0175C23.6765 21.7916 21.9452 24.0207 19.3922 27.308C18.0366 29.0533 16.4494 31.097 14.5908 33.5293L14.5795 33.5441L14.5687 33.5594C14.4589 33.7147 14.2432 33.833 13.9635 33.833C13.6838 33.833 13.4682 33.7147 13.3584 33.5594Z" fill="white" stroke="#8E82E1" stroke-width="2"/>
<g clip-path="url(#clip0_994_13216)">
<path d="M10.3735 8.3125C10.0399 8.3125 9.72814 8.46289 9.52033 8.72266L9.1676 9.16016C8.94338 9.4418 8.53049 9.48828 8.24611 9.26133C7.96174 9.03437 7.91799 8.62422 8.14494 8.33984L8.49221 7.90234C8.94885 7.33359 9.64064 7 10.3735 7H17.8766C18.6067 7 19.2985 7.33359 19.7551 7.90234L20.1051 8.33984C20.3321 8.62422 20.2856 9.03711 20.0012 9.26133C19.7168 9.48555 19.3039 9.4418 19.0797 9.16016L18.7324 8.72266C18.5246 8.46289 18.2102 8.3125 17.8793 8.3125H14.7813V9.625H15.875C17.3242 9.625 18.5 10.8008 18.5 12.25V16.625C18.5 17.4617 18.109 18.2055 17.4992 18.6867L19.2903 20.4777C19.4844 20.6719 19.3477 21 19.0742 21H17.9887C17.7563 21 17.5348 20.907 17.3707 20.743L15.875 19.25H12.375L10.8821 20.743C10.718 20.907 10.4965 21 10.2641 21H9.1758C8.90236 21 8.76564 20.6691 8.95978 20.4777L10.7508 18.6867C10.141 18.2055 9.75002 17.4617 9.75002 16.625V12.25C9.75002 10.8008 10.9258 9.625 12.375 9.625H13.4688V8.3125H10.3735ZM12.375 11.375C11.891 11.375 11.5 11.766 11.5 12.25V13.125C11.5 13.609 11.891 14 12.375 14H15.875C16.359 14 16.75 13.609 16.75 13.125V12.25C16.75 11.766 16.359 11.375 15.875 11.375H12.375ZM13.25 16.625C13.25 16.3929 13.1578 16.1704 12.9937 16.0063C12.8296 15.8422 12.6071 15.75 12.375 15.75C12.143 15.75 11.9204 15.8422 11.7563 16.0063C11.5922 16.1704 11.5 16.3929 11.5 16.625C11.5 16.8571 11.5922 17.0796 11.7563 17.2437C11.9204 17.4078 12.143 17.5 12.375 17.5C12.6071 17.5 12.8296 17.4078 12.9937 17.2437C13.1578 17.0796 13.25 16.8571 13.25 16.625ZM15.875 17.5C16.1071 17.5 16.3296 17.4078 16.4937 17.2437C16.6578 17.0796 16.75 16.8571 16.75 16.625C16.75 16.3929 16.6578 16.1704 16.4937 16.0063C16.3296 15.8422 16.1071 15.75 15.875 15.75C15.643 15.75 15.4204 15.8422 15.2563 16.0063C15.0922 16.1704 15 16.3929 15 16.625C15 16.8571 15.0922 17.0796 15.2563 17.2437C15.4204 17.4078 15.643 17.5 15.875 17.5Z" fill="#8E82E1"/>
</g>
<defs>
<clipPath id="clip0_994_13216">
<rect width="12.25" height="14" fill="white" transform="translate(8 7)"/>
</clipPath>
</defs>
</svg>
